%TF.GenerationSoftware,KiCad,Pcbnew,(7.0.0)*%
%TF.CreationDate,2023-03-10T17:56:16+01:00*%
%TF.ProjectId,CapacitorBox0201,43617061-6369-4746-9f72-426f78303230,rev?*%
%TF.SameCoordinates,Original*%
%TF.FileFunction,Drillmap*%
%TF.FilePolarity,Positive*%
%FSLAX45Y45*%
G04 Gerber Fmt 4.5, Leading zero omitted, Abs format (unit mm)*
G04 Created by KiCad (PCBNEW (7.0.0)) date 2023-03-10 17:56:16*
%MOMM*%
%LPD*%
G01*
G04 APERTURE LIST*
%ADD10C,0.100000*%
%ADD11C,0.200000*%
G04 APERTURE END LIST*
D10*
X10100000Y-10000000D02*
X12100000Y-10000000D01*
X12100000Y-10000000D02*
X12100000Y-12200000D01*
X12100000Y-12200000D02*
X10100000Y-12200000D01*
X10100000Y-10000000D02*
X10100000Y-12200000D01*
D11*
X10342619Y-12498476D02*
X10342619Y-12298476D01*
X10342619Y-12298476D02*
X10390238Y-12298476D01*
X10390238Y-12298476D02*
X10418810Y-12308000D01*
X10418810Y-12308000D02*
X10437857Y-12327048D01*
X10437857Y-12327048D02*
X10447381Y-12346095D01*
X10447381Y-12346095D02*
X10456905Y-12384190D01*
X10456905Y-12384190D02*
X10456905Y-12412762D01*
X10456905Y-12412762D02*
X10447381Y-12450857D01*
X10447381Y-12450857D02*
X10437857Y-12469905D01*
X10437857Y-12469905D02*
X10418810Y-12488952D01*
X10418810Y-12488952D02*
X10390238Y-12498476D01*
X10390238Y-12498476D02*
X10342619Y-12498476D01*
X10542619Y-12498476D02*
X10542619Y-12365143D01*
X10542619Y-12403238D02*
X10552143Y-12384190D01*
X10552143Y-12384190D02*
X10561667Y-12374667D01*
X10561667Y-12374667D02*
X10580714Y-12365143D01*
X10580714Y-12365143D02*
X10599762Y-12365143D01*
X10666429Y-12498476D02*
X10666429Y-12365143D01*
X10666429Y-12298476D02*
X10656905Y-12308000D01*
X10656905Y-12308000D02*
X10666429Y-12317524D01*
X10666429Y-12317524D02*
X10675952Y-12308000D01*
X10675952Y-12308000D02*
X10666429Y-12298476D01*
X10666429Y-12298476D02*
X10666429Y-12317524D01*
X10790238Y-12498476D02*
X10771190Y-12488952D01*
X10771190Y-12488952D02*
X10761667Y-12469905D01*
X10761667Y-12469905D02*
X10761667Y-12298476D01*
X10895000Y-12498476D02*
X10875952Y-12488952D01*
X10875952Y-12488952D02*
X10866429Y-12469905D01*
X10866429Y-12469905D02*
X10866429Y-12298476D01*
X11091190Y-12498476D02*
X11091190Y-12298476D01*
X11091190Y-12298476D02*
X11157857Y-12441333D01*
X11157857Y-12441333D02*
X11224524Y-12298476D01*
X11224524Y-12298476D02*
X11224524Y-12498476D01*
X11405476Y-12498476D02*
X11405476Y-12393714D01*
X11405476Y-12393714D02*
X11395952Y-12374667D01*
X11395952Y-12374667D02*
X11376905Y-12365143D01*
X11376905Y-12365143D02*
X11338809Y-12365143D01*
X11338809Y-12365143D02*
X11319762Y-12374667D01*
X11405476Y-12488952D02*
X11386428Y-12498476D01*
X11386428Y-12498476D02*
X11338809Y-12498476D01*
X11338809Y-12498476D02*
X11319762Y-12488952D01*
X11319762Y-12488952D02*
X11310238Y-12469905D01*
X11310238Y-12469905D02*
X11310238Y-12450857D01*
X11310238Y-12450857D02*
X11319762Y-12431809D01*
X11319762Y-12431809D02*
X11338809Y-12422286D01*
X11338809Y-12422286D02*
X11386428Y-12422286D01*
X11386428Y-12422286D02*
X11405476Y-12412762D01*
X11500714Y-12365143D02*
X11500714Y-12565143D01*
X11500714Y-12374667D02*
X11519762Y-12365143D01*
X11519762Y-12365143D02*
X11557857Y-12365143D01*
X11557857Y-12365143D02*
X11576905Y-12374667D01*
X11576905Y-12374667D02*
X11586428Y-12384190D01*
X11586428Y-12384190D02*
X11595952Y-12403238D01*
X11595952Y-12403238D02*
X11595952Y-12460381D01*
X11595952Y-12460381D02*
X11586428Y-12479428D01*
X11586428Y-12479428D02*
X11576905Y-12488952D01*
X11576905Y-12488952D02*
X11557857Y-12498476D01*
X11557857Y-12498476D02*
X11519762Y-12498476D01*
X11519762Y-12498476D02*
X11500714Y-12488952D01*
X11681667Y-12479428D02*
X11691190Y-12488952D01*
X11691190Y-12488952D02*
X11681667Y-12498476D01*
X11681667Y-12498476D02*
X11672143Y-12488952D01*
X11672143Y-12488952D02*
X11681667Y-12479428D01*
X11681667Y-12479428D02*
X11681667Y-12498476D01*
X11681667Y-12374667D02*
X11691190Y-12384190D01*
X11691190Y-12384190D02*
X11681667Y-12393714D01*
X11681667Y-12393714D02*
X11672143Y-12384190D01*
X11672143Y-12384190D02*
X11681667Y-12374667D01*
X11681667Y-12374667D02*
X11681667Y-12393714D01*
M02*
