G04 #@! TF.GenerationSoftware,KiCad,Pcbnew,(7.0.0)*
G04 #@! TF.CreationDate,2023-03-10T18:26:51+01:00*
G04 #@! TF.ProjectId,CapacitorBox1206,43617061-6369-4746-9f72-426f78313230,rev?*
G04 #@! TF.SameCoordinates,Original*
G04 #@! TF.FileFunction,Legend,Top*
G04 #@! TF.FilePolarity,Positive*
%FSLAX46Y46*%
G04 Gerber Fmt 4.6, Leading zero omitted, Abs format (unit mm)*
G04 Created by KiCad (PCBNEW (7.0.0)) date 2023-03-10 18:26:51*
%MOMM*%
%LPD*%
G01*
G04 APERTURE LIST*
G04 Aperture macros list*
%AMRoundRect*
0 Rectangle with rounded corners*
0 $1 Rounding radius*
0 $2 $3 $4 $5 $6 $7 $8 $9 X,Y pos of 4 corners*
0 Add a 4 corners polygon primitive as box body*
4,1,4,$2,$3,$4,$5,$6,$7,$8,$9,$2,$3,0*
0 Add four circle primitives for the rounded corners*
1,1,$1+$1,$2,$3*
1,1,$1+$1,$4,$5*
1,1,$1+$1,$6,$7*
1,1,$1+$1,$8,$9*
0 Add four rect primitives between the rounded corners*
20,1,$1+$1,$2,$3,$4,$5,0*
20,1,$1+$1,$4,$5,$6,$7,0*
20,1,$1+$1,$6,$7,$8,$9,0*
20,1,$1+$1,$8,$9,$2,$3,0*%
G04 Aperture macros list end*
%ADD10C,0.150000*%
%ADD11C,0.120000*%
%ADD12RoundRect,0.250000X-0.412500X-0.650000X0.412500X-0.650000X0.412500X0.650000X-0.412500X0.650000X0*%
%ADD13RoundRect,0.250000X-0.650000X0.412500X-0.650000X-0.412500X0.650000X-0.412500X0.650000X0.412500X0*%
%ADD14R,1.700000X1.700000*%
G04 #@! TA.AperFunction,Profile*
%ADD15C,0.100000*%
G04 #@! TD*
G04 APERTURE END LIST*
D10*
X105250000Y-104000000D02*
X103250000Y-106000000D01*
X113250000Y-121250000D02*
X106750000Y-121250000D01*
X107250000Y-118750000D02*
X113250000Y-118750000D01*
X106750000Y-114500000D02*
X106750000Y-118250000D01*
X104000000Y-101250000D02*
X103250000Y-102000000D01*
X106250000Y-104000000D02*
X105250000Y-104000000D01*
X106750000Y-118250000D02*
X104250000Y-115750000D01*
X113250000Y-118750000D02*
X113250000Y-113750000D01*
X122500000Y-121250000D02*
X116250000Y-121250000D01*
X106750000Y-114500000D02*
X104000000Y-111750000D01*
X106750000Y-119500000D02*
X103500000Y-116330000D01*
X122500000Y-101000000D02*
X122500000Y-121250000D01*
X106250000Y-105000000D02*
X106250000Y-108500000D01*
X106250000Y-102250000D02*
X104500000Y-102250000D01*
X106750000Y-118250000D02*
X107250000Y-118750000D01*
X117500000Y-101000000D02*
X122500000Y-101000000D01*
X106750000Y-121250000D02*
X106750000Y-119500000D01*
X113250000Y-113750000D02*
X107250000Y-113750000D01*
X116250000Y-108500000D02*
X106250000Y-108500000D01*
X107250000Y-113750000D02*
X104000000Y-110500000D01*
X116250000Y-102250000D02*
X116250000Y-121250000D01*
X106250000Y-102250000D02*
X116250000Y-102250000D01*
X104500000Y-102250000D02*
X104000000Y-102750000D01*
X117500000Y-101000000D02*
X117250000Y-101250000D01*
X105750000Y-105000000D02*
X104000000Y-106750000D01*
X106250000Y-104000000D02*
X106250000Y-102250000D01*
X117250000Y-101250000D02*
X104000000Y-101250000D01*
X106250000Y-105000000D02*
X105750000Y-105000000D01*
X113250000Y-118750000D02*
X113250000Y-121250000D01*
X117217714Y-119883332D02*
X117255809Y-119921428D01*
X117255809Y-119921428D02*
X117293904Y-120035713D01*
X117293904Y-120035713D02*
X117293904Y-120111904D01*
X117293904Y-120111904D02*
X117255809Y-120226190D01*
X117255809Y-120226190D02*
X117179619Y-120302380D01*
X117179619Y-120302380D02*
X117103428Y-120340475D01*
X117103428Y-120340475D02*
X116951047Y-120378571D01*
X116951047Y-120378571D02*
X116836761Y-120378571D01*
X116836761Y-120378571D02*
X116684380Y-120340475D01*
X116684380Y-120340475D02*
X116608190Y-120302380D01*
X116608190Y-120302380D02*
X116532000Y-120226190D01*
X116532000Y-120226190D02*
X116493904Y-120111904D01*
X116493904Y-120111904D02*
X116493904Y-120035713D01*
X116493904Y-120035713D02*
X116532000Y-119921428D01*
X116532000Y-119921428D02*
X116570095Y-119883332D01*
X117293904Y-119502380D02*
X117293904Y-119349999D01*
X117293904Y-119349999D02*
X117255809Y-119273809D01*
X117255809Y-119273809D02*
X117217714Y-119235713D01*
X117217714Y-119235713D02*
X117103428Y-119159523D01*
X117103428Y-119159523D02*
X116951047Y-119121428D01*
X116951047Y-119121428D02*
X116646285Y-119121428D01*
X116646285Y-119121428D02*
X116570095Y-119159523D01*
X116570095Y-119159523D02*
X116532000Y-119197618D01*
X116532000Y-119197618D02*
X116493904Y-119273809D01*
X116493904Y-119273809D02*
X116493904Y-119426190D01*
X116493904Y-119426190D02*
X116532000Y-119502380D01*
X116532000Y-119502380D02*
X116570095Y-119540475D01*
X116570095Y-119540475D02*
X116646285Y-119578571D01*
X116646285Y-119578571D02*
X116836761Y-119578571D01*
X116836761Y-119578571D02*
X116912952Y-119540475D01*
X116912952Y-119540475D02*
X116951047Y-119502380D01*
X116951047Y-119502380D02*
X116989142Y-119426190D01*
X116989142Y-119426190D02*
X116989142Y-119273809D01*
X116989142Y-119273809D02*
X116951047Y-119197618D01*
X116951047Y-119197618D02*
X116912952Y-119159523D01*
X116912952Y-119159523D02*
X116836761Y-119121428D01*
X117217714Y-117383332D02*
X117255809Y-117421428D01*
X117255809Y-117421428D02*
X117293904Y-117535713D01*
X117293904Y-117535713D02*
X117293904Y-117611904D01*
X117293904Y-117611904D02*
X117255809Y-117726190D01*
X117255809Y-117726190D02*
X117179619Y-117802380D01*
X117179619Y-117802380D02*
X117103428Y-117840475D01*
X117103428Y-117840475D02*
X116951047Y-117878571D01*
X116951047Y-117878571D02*
X116836761Y-117878571D01*
X116836761Y-117878571D02*
X116684380Y-117840475D01*
X116684380Y-117840475D02*
X116608190Y-117802380D01*
X116608190Y-117802380D02*
X116532000Y-117726190D01*
X116532000Y-117726190D02*
X116493904Y-117611904D01*
X116493904Y-117611904D02*
X116493904Y-117535713D01*
X116493904Y-117535713D02*
X116532000Y-117421428D01*
X116532000Y-117421428D02*
X116570095Y-117383332D01*
X116836761Y-116926190D02*
X116798666Y-117002380D01*
X116798666Y-117002380D02*
X116760571Y-117040475D01*
X116760571Y-117040475D02*
X116684380Y-117078571D01*
X116684380Y-117078571D02*
X116646285Y-117078571D01*
X116646285Y-117078571D02*
X116570095Y-117040475D01*
X116570095Y-117040475D02*
X116532000Y-117002380D01*
X116532000Y-117002380D02*
X116493904Y-116926190D01*
X116493904Y-116926190D02*
X116493904Y-116773809D01*
X116493904Y-116773809D02*
X116532000Y-116697618D01*
X116532000Y-116697618D02*
X116570095Y-116659523D01*
X116570095Y-116659523D02*
X116646285Y-116621428D01*
X116646285Y-116621428D02*
X116684380Y-116621428D01*
X116684380Y-116621428D02*
X116760571Y-116659523D01*
X116760571Y-116659523D02*
X116798666Y-116697618D01*
X116798666Y-116697618D02*
X116836761Y-116773809D01*
X116836761Y-116773809D02*
X116836761Y-116926190D01*
X116836761Y-116926190D02*
X116874857Y-117002380D01*
X116874857Y-117002380D02*
X116912952Y-117040475D01*
X116912952Y-117040475D02*
X116989142Y-117078571D01*
X116989142Y-117078571D02*
X117141523Y-117078571D01*
X117141523Y-117078571D02*
X117217714Y-117040475D01*
X117217714Y-117040475D02*
X117255809Y-117002380D01*
X117255809Y-117002380D02*
X117293904Y-116926190D01*
X117293904Y-116926190D02*
X117293904Y-116773809D01*
X117293904Y-116773809D02*
X117255809Y-116697618D01*
X117255809Y-116697618D02*
X117217714Y-116659523D01*
X117217714Y-116659523D02*
X117141523Y-116621428D01*
X117141523Y-116621428D02*
X116989142Y-116621428D01*
X116989142Y-116621428D02*
X116912952Y-116659523D01*
X116912952Y-116659523D02*
X116874857Y-116697618D01*
X116874857Y-116697618D02*
X116836761Y-116773809D01*
X109485714Y-103217714D02*
X109447618Y-103255809D01*
X109447618Y-103255809D02*
X109333333Y-103293904D01*
X109333333Y-103293904D02*
X109257142Y-103293904D01*
X109257142Y-103293904D02*
X109142856Y-103255809D01*
X109142856Y-103255809D02*
X109066666Y-103179619D01*
X109066666Y-103179619D02*
X109028571Y-103103428D01*
X109028571Y-103103428D02*
X108990475Y-102951047D01*
X108990475Y-102951047D02*
X108990475Y-102836761D01*
X108990475Y-102836761D02*
X109028571Y-102684380D01*
X109028571Y-102684380D02*
X109066666Y-102608190D01*
X109066666Y-102608190D02*
X109142856Y-102532000D01*
X109142856Y-102532000D02*
X109257142Y-102493904D01*
X109257142Y-102493904D02*
X109333333Y-102493904D01*
X109333333Y-102493904D02*
X109447618Y-102532000D01*
X109447618Y-102532000D02*
X109485714Y-102570095D01*
X110247618Y-103293904D02*
X109790475Y-103293904D01*
X110019047Y-103293904D02*
X110019047Y-102493904D01*
X110019047Y-102493904D02*
X109942856Y-102608190D01*
X109942856Y-102608190D02*
X109866666Y-102684380D01*
X109866666Y-102684380D02*
X109790475Y-102722476D01*
X110552380Y-102570095D02*
X110590476Y-102532000D01*
X110590476Y-102532000D02*
X110666666Y-102493904D01*
X110666666Y-102493904D02*
X110857142Y-102493904D01*
X110857142Y-102493904D02*
X110933333Y-102532000D01*
X110933333Y-102532000D02*
X110971428Y-102570095D01*
X110971428Y-102570095D02*
X111009523Y-102646285D01*
X111009523Y-102646285D02*
X111009523Y-102722476D01*
X111009523Y-102722476D02*
X110971428Y-102836761D01*
X110971428Y-102836761D02*
X110514285Y-103293904D01*
X110514285Y-103293904D02*
X111009523Y-103293904D01*
X104983333Y-114493904D02*
X104983333Y-115065333D01*
X104983333Y-115065333D02*
X104945238Y-115179619D01*
X104945238Y-115179619D02*
X104869047Y-115255809D01*
X104869047Y-115255809D02*
X104754762Y-115293904D01*
X104754762Y-115293904D02*
X104678571Y-115293904D01*
X105707143Y-114760571D02*
X105707143Y-115293904D01*
X105516667Y-114455809D02*
X105326190Y-115027238D01*
X105326190Y-115027238D02*
X105821429Y-115027238D01*
X104983333Y-118993904D02*
X104983333Y-119565333D01*
X104983333Y-119565333D02*
X104945238Y-119679619D01*
X104945238Y-119679619D02*
X104869047Y-119755809D01*
X104869047Y-119755809D02*
X104754762Y-119793904D01*
X104754762Y-119793904D02*
X104678571Y-119793904D01*
X105745238Y-118993904D02*
X105364286Y-118993904D01*
X105364286Y-118993904D02*
X105326190Y-119374857D01*
X105326190Y-119374857D02*
X105364286Y-119336761D01*
X105364286Y-119336761D02*
X105440476Y-119298666D01*
X105440476Y-119298666D02*
X105630952Y-119298666D01*
X105630952Y-119298666D02*
X105707143Y-119336761D01*
X105707143Y-119336761D02*
X105745238Y-119374857D01*
X105745238Y-119374857D02*
X105783333Y-119451047D01*
X105783333Y-119451047D02*
X105783333Y-119641523D01*
X105783333Y-119641523D02*
X105745238Y-119717714D01*
X105745238Y-119717714D02*
X105707143Y-119755809D01*
X105707143Y-119755809D02*
X105630952Y-119793904D01*
X105630952Y-119793904D02*
X105440476Y-119793904D01*
X105440476Y-119793904D02*
X105364286Y-119755809D01*
X105364286Y-119755809D02*
X105326190Y-119717714D01*
X111985714Y-103217714D02*
X111947618Y-103255809D01*
X111947618Y-103255809D02*
X111833333Y-103293904D01*
X111833333Y-103293904D02*
X111757142Y-103293904D01*
X111757142Y-103293904D02*
X111642856Y-103255809D01*
X111642856Y-103255809D02*
X111566666Y-103179619D01*
X111566666Y-103179619D02*
X111528571Y-103103428D01*
X111528571Y-103103428D02*
X111490475Y-102951047D01*
X111490475Y-102951047D02*
X111490475Y-102836761D01*
X111490475Y-102836761D02*
X111528571Y-102684380D01*
X111528571Y-102684380D02*
X111566666Y-102608190D01*
X111566666Y-102608190D02*
X111642856Y-102532000D01*
X111642856Y-102532000D02*
X111757142Y-102493904D01*
X111757142Y-102493904D02*
X111833333Y-102493904D01*
X111833333Y-102493904D02*
X111947618Y-102532000D01*
X111947618Y-102532000D02*
X111985714Y-102570095D01*
X112747618Y-103293904D02*
X112290475Y-103293904D01*
X112519047Y-103293904D02*
X112519047Y-102493904D01*
X112519047Y-102493904D02*
X112442856Y-102608190D01*
X112442856Y-102608190D02*
X112366666Y-102684380D01*
X112366666Y-102684380D02*
X112290475Y-102722476D01*
X113471428Y-102493904D02*
X113090476Y-102493904D01*
X113090476Y-102493904D02*
X113052380Y-102874857D01*
X113052380Y-102874857D02*
X113090476Y-102836761D01*
X113090476Y-102836761D02*
X113166666Y-102798666D01*
X113166666Y-102798666D02*
X113357142Y-102798666D01*
X113357142Y-102798666D02*
X113433333Y-102836761D01*
X113433333Y-102836761D02*
X113471428Y-102874857D01*
X113471428Y-102874857D02*
X113509523Y-102951047D01*
X113509523Y-102951047D02*
X113509523Y-103141523D01*
X113509523Y-103141523D02*
X113471428Y-103217714D01*
X113471428Y-103217714D02*
X113433333Y-103255809D01*
X113433333Y-103255809D02*
X113357142Y-103293904D01*
X113357142Y-103293904D02*
X113166666Y-103293904D01*
X113166666Y-103293904D02*
X113090476Y-103255809D01*
X113090476Y-103255809D02*
X113052380Y-103217714D01*
X106985714Y-103217714D02*
X106947618Y-103255809D01*
X106947618Y-103255809D02*
X106833333Y-103293904D01*
X106833333Y-103293904D02*
X106757142Y-103293904D01*
X106757142Y-103293904D02*
X106642856Y-103255809D01*
X106642856Y-103255809D02*
X106566666Y-103179619D01*
X106566666Y-103179619D02*
X106528571Y-103103428D01*
X106528571Y-103103428D02*
X106490475Y-102951047D01*
X106490475Y-102951047D02*
X106490475Y-102836761D01*
X106490475Y-102836761D02*
X106528571Y-102684380D01*
X106528571Y-102684380D02*
X106566666Y-102608190D01*
X106566666Y-102608190D02*
X106642856Y-102532000D01*
X106642856Y-102532000D02*
X106757142Y-102493904D01*
X106757142Y-102493904D02*
X106833333Y-102493904D01*
X106833333Y-102493904D02*
X106947618Y-102532000D01*
X106947618Y-102532000D02*
X106985714Y-102570095D01*
X107747618Y-103293904D02*
X107290475Y-103293904D01*
X107519047Y-103293904D02*
X107519047Y-102493904D01*
X107519047Y-102493904D02*
X107442856Y-102608190D01*
X107442856Y-102608190D02*
X107366666Y-102684380D01*
X107366666Y-102684380D02*
X107290475Y-102722476D01*
X108014285Y-102493904D02*
X108509523Y-102493904D01*
X108509523Y-102493904D02*
X108242857Y-102798666D01*
X108242857Y-102798666D02*
X108357142Y-102798666D01*
X108357142Y-102798666D02*
X108433333Y-102836761D01*
X108433333Y-102836761D02*
X108471428Y-102874857D01*
X108471428Y-102874857D02*
X108509523Y-102951047D01*
X108509523Y-102951047D02*
X108509523Y-103141523D01*
X108509523Y-103141523D02*
X108471428Y-103217714D01*
X108471428Y-103217714D02*
X108433333Y-103255809D01*
X108433333Y-103255809D02*
X108357142Y-103293904D01*
X108357142Y-103293904D02*
X108128571Y-103293904D01*
X108128571Y-103293904D02*
X108052380Y-103255809D01*
X108052380Y-103255809D02*
X108014285Y-103217714D01*
X104983333Y-102743904D02*
X104983333Y-103315333D01*
X104983333Y-103315333D02*
X104945238Y-103429619D01*
X104945238Y-103429619D02*
X104869047Y-103505809D01*
X104869047Y-103505809D02*
X104754762Y-103543904D01*
X104754762Y-103543904D02*
X104678571Y-103543904D01*
X105783333Y-103543904D02*
X105326190Y-103543904D01*
X105554762Y-103543904D02*
X105554762Y-102743904D01*
X105554762Y-102743904D02*
X105478571Y-102858190D01*
X105478571Y-102858190D02*
X105402381Y-102934380D01*
X105402381Y-102934380D02*
X105326190Y-102972476D01*
X110983333Y-110493904D02*
X110983333Y-111065333D01*
X110983333Y-111065333D02*
X110945238Y-111179619D01*
X110945238Y-111179619D02*
X110869047Y-111255809D01*
X110869047Y-111255809D02*
X110754762Y-111293904D01*
X110754762Y-111293904D02*
X110678571Y-111293904D01*
X111707143Y-110493904D02*
X111554762Y-110493904D01*
X111554762Y-110493904D02*
X111478571Y-110532000D01*
X111478571Y-110532000D02*
X111440476Y-110570095D01*
X111440476Y-110570095D02*
X111364286Y-110684380D01*
X111364286Y-110684380D02*
X111326190Y-110836761D01*
X111326190Y-110836761D02*
X111326190Y-111141523D01*
X111326190Y-111141523D02*
X111364286Y-111217714D01*
X111364286Y-111217714D02*
X111402381Y-111255809D01*
X111402381Y-111255809D02*
X111478571Y-111293904D01*
X111478571Y-111293904D02*
X111630952Y-111293904D01*
X111630952Y-111293904D02*
X111707143Y-111255809D01*
X111707143Y-111255809D02*
X111745238Y-111217714D01*
X111745238Y-111217714D02*
X111783333Y-111141523D01*
X111783333Y-111141523D02*
X111783333Y-110951047D01*
X111783333Y-110951047D02*
X111745238Y-110874857D01*
X111745238Y-110874857D02*
X111707143Y-110836761D01*
X111707143Y-110836761D02*
X111630952Y-110798666D01*
X111630952Y-110798666D02*
X111478571Y-110798666D01*
X111478571Y-110798666D02*
X111402381Y-110836761D01*
X111402381Y-110836761D02*
X111364286Y-110874857D01*
X111364286Y-110874857D02*
X111326190Y-110951047D01*
X112717714Y-118014285D02*
X112755809Y-118052381D01*
X112755809Y-118052381D02*
X112793904Y-118166666D01*
X112793904Y-118166666D02*
X112793904Y-118242857D01*
X112793904Y-118242857D02*
X112755809Y-118357143D01*
X112755809Y-118357143D02*
X112679619Y-118433333D01*
X112679619Y-118433333D02*
X112603428Y-118471428D01*
X112603428Y-118471428D02*
X112451047Y-118509524D01*
X112451047Y-118509524D02*
X112336761Y-118509524D01*
X112336761Y-118509524D02*
X112184380Y-118471428D01*
X112184380Y-118471428D02*
X112108190Y-118433333D01*
X112108190Y-118433333D02*
X112032000Y-118357143D01*
X112032000Y-118357143D02*
X111993904Y-118242857D01*
X111993904Y-118242857D02*
X111993904Y-118166666D01*
X111993904Y-118166666D02*
X112032000Y-118052381D01*
X112032000Y-118052381D02*
X112070095Y-118014285D01*
X112793904Y-117252381D02*
X112793904Y-117709524D01*
X112793904Y-117480952D02*
X111993904Y-117480952D01*
X111993904Y-117480952D02*
X112108190Y-117557143D01*
X112108190Y-117557143D02*
X112184380Y-117633333D01*
X112184380Y-117633333D02*
X112222476Y-117709524D01*
X111993904Y-116757142D02*
X111993904Y-116680952D01*
X111993904Y-116680952D02*
X112032000Y-116604761D01*
X112032000Y-116604761D02*
X112070095Y-116566666D01*
X112070095Y-116566666D02*
X112146285Y-116528571D01*
X112146285Y-116528571D02*
X112298666Y-116490476D01*
X112298666Y-116490476D02*
X112489142Y-116490476D01*
X112489142Y-116490476D02*
X112641523Y-116528571D01*
X112641523Y-116528571D02*
X112717714Y-116566666D01*
X112717714Y-116566666D02*
X112755809Y-116604761D01*
X112755809Y-116604761D02*
X112793904Y-116680952D01*
X112793904Y-116680952D02*
X112793904Y-116757142D01*
X112793904Y-116757142D02*
X112755809Y-116833333D01*
X112755809Y-116833333D02*
X112717714Y-116871428D01*
X112717714Y-116871428D02*
X112641523Y-116909523D01*
X112641523Y-116909523D02*
X112489142Y-116947619D01*
X112489142Y-116947619D02*
X112298666Y-116947619D01*
X112298666Y-116947619D02*
X112146285Y-116909523D01*
X112146285Y-116909523D02*
X112070095Y-116871428D01*
X112070095Y-116871428D02*
X112032000Y-116833333D01*
X112032000Y-116833333D02*
X111993904Y-116757142D01*
X114485714Y-103217714D02*
X114447618Y-103255809D01*
X114447618Y-103255809D02*
X114333333Y-103293904D01*
X114333333Y-103293904D02*
X114257142Y-103293904D01*
X114257142Y-103293904D02*
X114142856Y-103255809D01*
X114142856Y-103255809D02*
X114066666Y-103179619D01*
X114066666Y-103179619D02*
X114028571Y-103103428D01*
X114028571Y-103103428D02*
X113990475Y-102951047D01*
X113990475Y-102951047D02*
X113990475Y-102836761D01*
X113990475Y-102836761D02*
X114028571Y-102684380D01*
X114028571Y-102684380D02*
X114066666Y-102608190D01*
X114066666Y-102608190D02*
X114142856Y-102532000D01*
X114142856Y-102532000D02*
X114257142Y-102493904D01*
X114257142Y-102493904D02*
X114333333Y-102493904D01*
X114333333Y-102493904D02*
X114447618Y-102532000D01*
X114447618Y-102532000D02*
X114485714Y-102570095D01*
X115247618Y-103293904D02*
X114790475Y-103293904D01*
X115019047Y-103293904D02*
X115019047Y-102493904D01*
X115019047Y-102493904D02*
X114942856Y-102608190D01*
X114942856Y-102608190D02*
X114866666Y-102684380D01*
X114866666Y-102684380D02*
X114790475Y-102722476D01*
X115933333Y-102760571D02*
X115933333Y-103293904D01*
X115742857Y-102455809D02*
X115552380Y-103027238D01*
X115552380Y-103027238D02*
X116047619Y-103027238D01*
X117217714Y-114883332D02*
X117255809Y-114921428D01*
X117255809Y-114921428D02*
X117293904Y-115035713D01*
X117293904Y-115035713D02*
X117293904Y-115111904D01*
X117293904Y-115111904D02*
X117255809Y-115226190D01*
X117255809Y-115226190D02*
X117179619Y-115302380D01*
X117179619Y-115302380D02*
X117103428Y-115340475D01*
X117103428Y-115340475D02*
X116951047Y-115378571D01*
X116951047Y-115378571D02*
X116836761Y-115378571D01*
X116836761Y-115378571D02*
X116684380Y-115340475D01*
X116684380Y-115340475D02*
X116608190Y-115302380D01*
X116608190Y-115302380D02*
X116532000Y-115226190D01*
X116532000Y-115226190D02*
X116493904Y-115111904D01*
X116493904Y-115111904D02*
X116493904Y-115035713D01*
X116493904Y-115035713D02*
X116532000Y-114921428D01*
X116532000Y-114921428D02*
X116570095Y-114883332D01*
X116493904Y-114616666D02*
X116493904Y-114083332D01*
X116493904Y-114083332D02*
X117293904Y-114426190D01*
X117217714Y-104883332D02*
X117255809Y-104921428D01*
X117255809Y-104921428D02*
X117293904Y-105035713D01*
X117293904Y-105035713D02*
X117293904Y-105111904D01*
X117293904Y-105111904D02*
X117255809Y-105226190D01*
X117255809Y-105226190D02*
X117179619Y-105302380D01*
X117179619Y-105302380D02*
X117103428Y-105340475D01*
X117103428Y-105340475D02*
X116951047Y-105378571D01*
X116951047Y-105378571D02*
X116836761Y-105378571D01*
X116836761Y-105378571D02*
X116684380Y-105340475D01*
X116684380Y-105340475D02*
X116608190Y-105302380D01*
X116608190Y-105302380D02*
X116532000Y-105226190D01*
X116532000Y-105226190D02*
X116493904Y-105111904D01*
X116493904Y-105111904D02*
X116493904Y-105035713D01*
X116493904Y-105035713D02*
X116532000Y-104921428D01*
X116532000Y-104921428D02*
X116570095Y-104883332D01*
X116493904Y-104616666D02*
X116493904Y-104121428D01*
X116493904Y-104121428D02*
X116798666Y-104388094D01*
X116798666Y-104388094D02*
X116798666Y-104273809D01*
X116798666Y-104273809D02*
X116836761Y-104197618D01*
X116836761Y-104197618D02*
X116874857Y-104159523D01*
X116874857Y-104159523D02*
X116951047Y-104121428D01*
X116951047Y-104121428D02*
X117141523Y-104121428D01*
X117141523Y-104121428D02*
X117217714Y-104159523D01*
X117217714Y-104159523D02*
X117255809Y-104197618D01*
X117255809Y-104197618D02*
X117293904Y-104273809D01*
X117293904Y-104273809D02*
X117293904Y-104502380D01*
X117293904Y-104502380D02*
X117255809Y-104578571D01*
X117255809Y-104578571D02*
X117217714Y-104616666D01*
X104983333Y-109743904D02*
X104983333Y-110315333D01*
X104983333Y-110315333D02*
X104945238Y-110429619D01*
X104945238Y-110429619D02*
X104869047Y-110505809D01*
X104869047Y-110505809D02*
X104754762Y-110543904D01*
X104754762Y-110543904D02*
X104678571Y-110543904D01*
X105288095Y-109743904D02*
X105783333Y-109743904D01*
X105783333Y-109743904D02*
X105516667Y-110048666D01*
X105516667Y-110048666D02*
X105630952Y-110048666D01*
X105630952Y-110048666D02*
X105707143Y-110086761D01*
X105707143Y-110086761D02*
X105745238Y-110124857D01*
X105745238Y-110124857D02*
X105783333Y-110201047D01*
X105783333Y-110201047D02*
X105783333Y-110391523D01*
X105783333Y-110391523D02*
X105745238Y-110467714D01*
X105745238Y-110467714D02*
X105707143Y-110505809D01*
X105707143Y-110505809D02*
X105630952Y-110543904D01*
X105630952Y-110543904D02*
X105402381Y-110543904D01*
X105402381Y-110543904D02*
X105326190Y-110505809D01*
X105326190Y-110505809D02*
X105288095Y-110467714D01*
X117217714Y-107383332D02*
X117255809Y-107421428D01*
X117255809Y-107421428D02*
X117293904Y-107535713D01*
X117293904Y-107535713D02*
X117293904Y-107611904D01*
X117293904Y-107611904D02*
X117255809Y-107726190D01*
X117255809Y-107726190D02*
X117179619Y-107802380D01*
X117179619Y-107802380D02*
X117103428Y-107840475D01*
X117103428Y-107840475D02*
X116951047Y-107878571D01*
X116951047Y-107878571D02*
X116836761Y-107878571D01*
X116836761Y-107878571D02*
X116684380Y-107840475D01*
X116684380Y-107840475D02*
X116608190Y-107802380D01*
X116608190Y-107802380D02*
X116532000Y-107726190D01*
X116532000Y-107726190D02*
X116493904Y-107611904D01*
X116493904Y-107611904D02*
X116493904Y-107535713D01*
X116493904Y-107535713D02*
X116532000Y-107421428D01*
X116532000Y-107421428D02*
X116570095Y-107383332D01*
X116760571Y-106697618D02*
X117293904Y-106697618D01*
X116455809Y-106888094D02*
X117027238Y-107078571D01*
X117027238Y-107078571D02*
X117027238Y-106583332D01*
X117217714Y-102383332D02*
X117255809Y-102421428D01*
X117255809Y-102421428D02*
X117293904Y-102535713D01*
X117293904Y-102535713D02*
X117293904Y-102611904D01*
X117293904Y-102611904D02*
X117255809Y-102726190D01*
X117255809Y-102726190D02*
X117179619Y-102802380D01*
X117179619Y-102802380D02*
X117103428Y-102840475D01*
X117103428Y-102840475D02*
X116951047Y-102878571D01*
X116951047Y-102878571D02*
X116836761Y-102878571D01*
X116836761Y-102878571D02*
X116684380Y-102840475D01*
X116684380Y-102840475D02*
X116608190Y-102802380D01*
X116608190Y-102802380D02*
X116532000Y-102726190D01*
X116532000Y-102726190D02*
X116493904Y-102611904D01*
X116493904Y-102611904D02*
X116493904Y-102535713D01*
X116493904Y-102535713D02*
X116532000Y-102421428D01*
X116532000Y-102421428D02*
X116570095Y-102383332D01*
X116570095Y-102078571D02*
X116532000Y-102040475D01*
X116532000Y-102040475D02*
X116493904Y-101964285D01*
X116493904Y-101964285D02*
X116493904Y-101773809D01*
X116493904Y-101773809D02*
X116532000Y-101697618D01*
X116532000Y-101697618D02*
X116570095Y-101659523D01*
X116570095Y-101659523D02*
X116646285Y-101621428D01*
X116646285Y-101621428D02*
X116722476Y-101621428D01*
X116722476Y-101621428D02*
X116836761Y-101659523D01*
X116836761Y-101659523D02*
X117293904Y-102116666D01*
X117293904Y-102116666D02*
X117293904Y-101621428D01*
X117217714Y-112383332D02*
X117255809Y-112421428D01*
X117255809Y-112421428D02*
X117293904Y-112535713D01*
X117293904Y-112535713D02*
X117293904Y-112611904D01*
X117293904Y-112611904D02*
X117255809Y-112726190D01*
X117255809Y-112726190D02*
X117179619Y-112802380D01*
X117179619Y-112802380D02*
X117103428Y-112840475D01*
X117103428Y-112840475D02*
X116951047Y-112878571D01*
X116951047Y-112878571D02*
X116836761Y-112878571D01*
X116836761Y-112878571D02*
X116684380Y-112840475D01*
X116684380Y-112840475D02*
X116608190Y-112802380D01*
X116608190Y-112802380D02*
X116532000Y-112726190D01*
X116532000Y-112726190D02*
X116493904Y-112611904D01*
X116493904Y-112611904D02*
X116493904Y-112535713D01*
X116493904Y-112535713D02*
X116532000Y-112421428D01*
X116532000Y-112421428D02*
X116570095Y-112383332D01*
X116493904Y-111697618D02*
X116493904Y-111849999D01*
X116493904Y-111849999D02*
X116532000Y-111926190D01*
X116532000Y-111926190D02*
X116570095Y-111964285D01*
X116570095Y-111964285D02*
X116684380Y-112040475D01*
X116684380Y-112040475D02*
X116836761Y-112078571D01*
X116836761Y-112078571D02*
X117141523Y-112078571D01*
X117141523Y-112078571D02*
X117217714Y-112040475D01*
X117217714Y-112040475D02*
X117255809Y-112002380D01*
X117255809Y-112002380D02*
X117293904Y-111926190D01*
X117293904Y-111926190D02*
X117293904Y-111773809D01*
X117293904Y-111773809D02*
X117255809Y-111697618D01*
X117255809Y-111697618D02*
X117217714Y-111659523D01*
X117217714Y-111659523D02*
X117141523Y-111621428D01*
X117141523Y-111621428D02*
X116951047Y-111621428D01*
X116951047Y-111621428D02*
X116874857Y-111659523D01*
X116874857Y-111659523D02*
X116836761Y-111697618D01*
X116836761Y-111697618D02*
X116798666Y-111773809D01*
X116798666Y-111773809D02*
X116798666Y-111926190D01*
X116798666Y-111926190D02*
X116836761Y-112002380D01*
X116836761Y-112002380D02*
X116874857Y-112040475D01*
X116874857Y-112040475D02*
X116951047Y-112078571D01*
X112717714Y-115514285D02*
X112755809Y-115552381D01*
X112755809Y-115552381D02*
X112793904Y-115666666D01*
X112793904Y-115666666D02*
X112793904Y-115742857D01*
X112793904Y-115742857D02*
X112755809Y-115857143D01*
X112755809Y-115857143D02*
X112679619Y-115933333D01*
X112679619Y-115933333D02*
X112603428Y-115971428D01*
X112603428Y-115971428D02*
X112451047Y-116009524D01*
X112451047Y-116009524D02*
X112336761Y-116009524D01*
X112336761Y-116009524D02*
X112184380Y-115971428D01*
X112184380Y-115971428D02*
X112108190Y-115933333D01*
X112108190Y-115933333D02*
X112032000Y-115857143D01*
X112032000Y-115857143D02*
X111993904Y-115742857D01*
X111993904Y-115742857D02*
X111993904Y-115666666D01*
X111993904Y-115666666D02*
X112032000Y-115552381D01*
X112032000Y-115552381D02*
X112070095Y-115514285D01*
X112793904Y-114752381D02*
X112793904Y-115209524D01*
X112793904Y-114980952D02*
X111993904Y-114980952D01*
X111993904Y-114980952D02*
X112108190Y-115057143D01*
X112108190Y-115057143D02*
X112184380Y-115133333D01*
X112184380Y-115133333D02*
X112222476Y-115209524D01*
X112793904Y-113990476D02*
X112793904Y-114447619D01*
X112793904Y-114219047D02*
X111993904Y-114219047D01*
X111993904Y-114219047D02*
X112108190Y-114295238D01*
X112108190Y-114295238D02*
X112184380Y-114371428D01*
X112184380Y-114371428D02*
X112222476Y-114447619D01*
X104983333Y-106493904D02*
X104983333Y-107065333D01*
X104983333Y-107065333D02*
X104945238Y-107179619D01*
X104945238Y-107179619D02*
X104869047Y-107255809D01*
X104869047Y-107255809D02*
X104754762Y-107293904D01*
X104754762Y-107293904D02*
X104678571Y-107293904D01*
X105326190Y-106570095D02*
X105364286Y-106532000D01*
X105364286Y-106532000D02*
X105440476Y-106493904D01*
X105440476Y-106493904D02*
X105630952Y-106493904D01*
X105630952Y-106493904D02*
X105707143Y-106532000D01*
X105707143Y-106532000D02*
X105745238Y-106570095D01*
X105745238Y-106570095D02*
X105783333Y-106646285D01*
X105783333Y-106646285D02*
X105783333Y-106722476D01*
X105783333Y-106722476D02*
X105745238Y-106836761D01*
X105745238Y-106836761D02*
X105288095Y-107293904D01*
X105288095Y-107293904D02*
X105783333Y-107293904D01*
X117217714Y-109883332D02*
X117255809Y-109921428D01*
X117255809Y-109921428D02*
X117293904Y-110035713D01*
X117293904Y-110035713D02*
X117293904Y-110111904D01*
X117293904Y-110111904D02*
X117255809Y-110226190D01*
X117255809Y-110226190D02*
X117179619Y-110302380D01*
X117179619Y-110302380D02*
X117103428Y-110340475D01*
X117103428Y-110340475D02*
X116951047Y-110378571D01*
X116951047Y-110378571D02*
X116836761Y-110378571D01*
X116836761Y-110378571D02*
X116684380Y-110340475D01*
X116684380Y-110340475D02*
X116608190Y-110302380D01*
X116608190Y-110302380D02*
X116532000Y-110226190D01*
X116532000Y-110226190D02*
X116493904Y-110111904D01*
X116493904Y-110111904D02*
X116493904Y-110035713D01*
X116493904Y-110035713D02*
X116532000Y-109921428D01*
X116532000Y-109921428D02*
X116570095Y-109883332D01*
X116493904Y-109159523D02*
X116493904Y-109540475D01*
X116493904Y-109540475D02*
X116874857Y-109578571D01*
X116874857Y-109578571D02*
X116836761Y-109540475D01*
X116836761Y-109540475D02*
X116798666Y-109464285D01*
X116798666Y-109464285D02*
X116798666Y-109273809D01*
X116798666Y-109273809D02*
X116836761Y-109197618D01*
X116836761Y-109197618D02*
X116874857Y-109159523D01*
X116874857Y-109159523D02*
X116951047Y-109121428D01*
X116951047Y-109121428D02*
X117141523Y-109121428D01*
X117141523Y-109121428D02*
X117217714Y-109159523D01*
X117217714Y-109159523D02*
X117255809Y-109197618D01*
X117255809Y-109197618D02*
X117293904Y-109273809D01*
X117293904Y-109273809D02*
X117293904Y-109464285D01*
X117293904Y-109464285D02*
X117255809Y-109540475D01*
X117255809Y-109540475D02*
X117217714Y-109578571D01*
X112717714Y-120133332D02*
X112755809Y-120171428D01*
X112755809Y-120171428D02*
X112793904Y-120285713D01*
X112793904Y-120285713D02*
X112793904Y-120361904D01*
X112793904Y-120361904D02*
X112755809Y-120476190D01*
X112755809Y-120476190D02*
X112679619Y-120552380D01*
X112679619Y-120552380D02*
X112603428Y-120590475D01*
X112603428Y-120590475D02*
X112451047Y-120628571D01*
X112451047Y-120628571D02*
X112336761Y-120628571D01*
X112336761Y-120628571D02*
X112184380Y-120590475D01*
X112184380Y-120590475D02*
X112108190Y-120552380D01*
X112108190Y-120552380D02*
X112032000Y-120476190D01*
X112032000Y-120476190D02*
X111993904Y-120361904D01*
X111993904Y-120361904D02*
X111993904Y-120285713D01*
X111993904Y-120285713D02*
X112032000Y-120171428D01*
X112032000Y-120171428D02*
X112070095Y-120133332D01*
X112793904Y-119371428D02*
X112793904Y-119828571D01*
X112793904Y-119599999D02*
X111993904Y-119599999D01*
X111993904Y-119599999D02*
X112108190Y-119676190D01*
X112108190Y-119676190D02*
X112184380Y-119752380D01*
X112184380Y-119752380D02*
X112222476Y-119828571D01*
D11*
X119226248Y-118840000D02*
X120648752Y-118840000D01*
X119226248Y-120660000D02*
X120648752Y-120660000D01*
X119226248Y-116340000D02*
X120648752Y-116340000D01*
X119226248Y-118160000D02*
X120648752Y-118160000D01*
X110910000Y-105288748D02*
X110910000Y-106711252D01*
X109090000Y-105288748D02*
X109090000Y-106711252D01*
X101670000Y-115000000D02*
X101670000Y-113670000D01*
X101670000Y-116330000D02*
X104330000Y-116330000D01*
X104330000Y-116270000D02*
X104330000Y-116330000D01*
X101670000Y-116270000D02*
X104330000Y-116270000D01*
X101670000Y-116270000D02*
X101670000Y-116330000D01*
X101670000Y-113670000D02*
X103000000Y-113670000D01*
X101670000Y-117670000D02*
X103000000Y-117670000D01*
X101670000Y-120330000D02*
X104330000Y-120330000D01*
X101670000Y-120270000D02*
X104330000Y-120270000D01*
X101670000Y-120270000D02*
X101670000Y-120330000D01*
X101670000Y-119000000D02*
X101670000Y-117670000D01*
X104330000Y-120270000D02*
X104330000Y-120330000D01*
X113410000Y-105288748D02*
X113410000Y-106711252D01*
X111590000Y-105288748D02*
X111590000Y-106711252D01*
X108410000Y-105288748D02*
X108410000Y-106711252D01*
X106590000Y-105288748D02*
X106590000Y-106711252D01*
X101670000Y-104270000D02*
X101670000Y-104330000D01*
X101670000Y-104330000D02*
X104330000Y-104330000D01*
X101670000Y-104270000D02*
X104330000Y-104270000D01*
X101670000Y-101670000D02*
X103000000Y-101670000D01*
X104330000Y-104270000D02*
X104330000Y-104330000D01*
X101670000Y-103000000D02*
X101670000Y-101670000D01*
X107670000Y-109670000D02*
X109000000Y-109670000D01*
X107670000Y-111000000D02*
X107670000Y-109670000D01*
X110330000Y-112270000D02*
X110330000Y-112330000D01*
X107670000Y-112270000D02*
X110330000Y-112270000D01*
X107670000Y-112270000D02*
X107670000Y-112330000D01*
X107670000Y-112330000D02*
X110330000Y-112330000D01*
X108726248Y-118410000D02*
X110148752Y-118410000D01*
X108726248Y-116590000D02*
X110148752Y-116590000D01*
X115910000Y-105288748D02*
X115910000Y-106711252D01*
X114090000Y-105288748D02*
X114090000Y-106711252D01*
X119226248Y-113840000D02*
X120648752Y-113840000D01*
X119226248Y-115660000D02*
X120648752Y-115660000D01*
X119226248Y-105660000D02*
X120648752Y-105660000D01*
X119226248Y-103840000D02*
X120648752Y-103840000D01*
X101670000Y-112330000D02*
X104330000Y-112330000D01*
X104330000Y-112270000D02*
X104330000Y-112330000D01*
X101670000Y-112270000D02*
X104330000Y-112270000D01*
X101670000Y-112270000D02*
X101670000Y-112330000D01*
X101670000Y-109670000D02*
X103000000Y-109670000D01*
X101670000Y-111000000D02*
X101670000Y-109670000D01*
X119226248Y-108160000D02*
X120648752Y-108160000D01*
X119226248Y-106340000D02*
X120648752Y-106340000D01*
X119226248Y-101340000D02*
X120648752Y-101340000D01*
X119226248Y-103160000D02*
X120648752Y-103160000D01*
X119226248Y-111340000D02*
X120648752Y-111340000D01*
X119226248Y-113160000D02*
X120648752Y-113160000D01*
X108726248Y-114090000D02*
X110148752Y-114090000D01*
X108726248Y-115910000D02*
X110148752Y-115910000D01*
X101670000Y-107000000D02*
X101670000Y-105670000D01*
X101670000Y-108330000D02*
X104330000Y-108330000D01*
X101670000Y-108270000D02*
X101670000Y-108330000D01*
X104330000Y-108270000D02*
X104330000Y-108330000D01*
X101670000Y-108270000D02*
X104330000Y-108270000D01*
X101670000Y-105670000D02*
X103000000Y-105670000D01*
X119226248Y-110660000D02*
X120648752Y-110660000D01*
X119226248Y-108840000D02*
X120648752Y-108840000D01*
X108726248Y-120910000D02*
X110148752Y-120910000D01*
X108726248Y-119090000D02*
X110148752Y-119090000D01*
%LPC*%
D12*
X118375000Y-119750000D03*
X121500000Y-119750000D03*
X118375000Y-117250000D03*
X121500000Y-117250000D03*
D13*
X110000000Y-104437500D03*
X110000000Y-107562500D03*
D14*
X102999999Y-114999999D03*
X102999999Y-118999999D03*
D13*
X112500000Y-104437500D03*
X112500000Y-107562500D03*
X107500000Y-104437500D03*
X107500000Y-107562500D03*
D14*
X102999999Y-102999999D03*
X108999999Y-110999999D03*
D12*
X107875000Y-117500000D03*
X111000000Y-117500000D03*
D13*
X115000000Y-104437500D03*
X115000000Y-107562500D03*
D12*
X118375000Y-114750000D03*
X121500000Y-114750000D03*
X118375000Y-104750000D03*
X121500000Y-104750000D03*
D14*
X102999999Y-110999999D03*
D12*
X118375000Y-107250000D03*
X121500000Y-107250000D03*
X118375000Y-102250000D03*
X121500000Y-102250000D03*
X118375000Y-112250000D03*
X121500000Y-112250000D03*
X107875000Y-115000000D03*
X111000000Y-115000000D03*
D14*
X102999999Y-106999999D03*
D12*
X118375000Y-109750000D03*
X121500000Y-109750000D03*
X107875000Y-120000000D03*
X111000000Y-120000000D03*
D15*
X101000000Y-100000000D02*
X123000000Y-100000000D01*
X123000000Y-100000000D02*
X123000000Y-122000000D01*
X123000000Y-122000000D02*
X101000000Y-122000000D01*
X101000000Y-100000000D02*
X101000000Y-122000000D01*
M02*
