%TF.GenerationSoftware,KiCad,Pcbnew,(7.0.0)*%
%TF.CreationDate,2023-03-10T18:26:55+01:00*%
%TF.ProjectId,CapacitorBox1206,43617061-6369-4746-9f72-426f78313230,rev?*%
%TF.SameCoordinates,Original*%
%TF.FileFunction,Drillmap*%
%TF.FilePolarity,Positive*%
%FSLAX45Y45*%
G04 Gerber Fmt 4.5, Leading zero omitted, Abs format (unit mm)*
G04 Created by KiCad (PCBNEW (7.0.0)) date 2023-03-10 18:26:55*
%MOMM*%
%LPD*%
G01*
G04 APERTURE LIST*
%ADD10C,0.100000*%
%ADD11C,0.200000*%
%ADD12C,0.040000*%
G04 APERTURE END LIST*
D10*
X10100000Y-10000000D02*
X12300000Y-10000000D01*
X12300000Y-10000000D02*
X12300000Y-12200000D01*
X12300000Y-12200000D02*
X10100000Y-12200000D01*
X10100000Y-10000000D02*
X10100000Y-12200000D01*
D11*
D12*
X11963750Y-10205000D02*
X12003750Y-10245000D01*
X12003750Y-10205000D02*
X11963750Y-10245000D01*
X11963750Y-10455000D02*
X12003750Y-10495000D01*
X12003750Y-10455000D02*
X11963750Y-10495000D01*
X11963750Y-10705000D02*
X12003750Y-10745000D01*
X12003750Y-10705000D02*
X11963750Y-10745000D01*
X11963750Y-10955000D02*
X12003750Y-10995000D01*
X12003750Y-10955000D02*
X11963750Y-10995000D01*
X11963750Y-11205000D02*
X12003750Y-11245000D01*
X12003750Y-11205000D02*
X11963750Y-11245000D01*
X11963750Y-11455000D02*
X12003750Y-11495000D01*
X12003750Y-11455000D02*
X11963750Y-11495000D01*
X11963750Y-11705000D02*
X12003750Y-11745000D01*
X12003750Y-11705000D02*
X11963750Y-11745000D01*
X11963750Y-11955000D02*
X12003750Y-11995000D01*
X12003750Y-11955000D02*
X11963750Y-11995000D01*
D10*
X10350000Y-10300000D02*
G75*
G03*
X10350000Y-10300000I-50000J0D01*
G01*
X10350000Y-10700000D02*
G75*
G03*
X10350000Y-10700000I-50000J0D01*
G01*
X10350000Y-11100000D02*
G75*
G03*
X10350000Y-11100000I-50000J0D01*
G01*
X10350000Y-11500000D02*
G75*
G03*
X10350000Y-11500000I-50000J0D01*
G01*
X10350000Y-11900000D02*
G75*
G03*
X10350000Y-11900000I-50000J0D01*
G01*
X10950000Y-11100000D02*
G75*
G03*
X10950000Y-11100000I-50000J0D01*
G01*
D11*
X10342619Y-12498476D02*
X10342619Y-12298476D01*
X10342619Y-12298476D02*
X10390238Y-12298476D01*
X10390238Y-12298476D02*
X10418810Y-12308000D01*
X10418810Y-12308000D02*
X10437857Y-12327048D01*
X10437857Y-12327048D02*
X10447381Y-12346095D01*
X10447381Y-12346095D02*
X10456905Y-12384190D01*
X10456905Y-12384190D02*
X10456905Y-12412762D01*
X10456905Y-12412762D02*
X10447381Y-12450857D01*
X10447381Y-12450857D02*
X10437857Y-12469905D01*
X10437857Y-12469905D02*
X10418810Y-12488952D01*
X10418810Y-12488952D02*
X10390238Y-12498476D01*
X10390238Y-12498476D02*
X10342619Y-12498476D01*
X10542619Y-12498476D02*
X10542619Y-12365143D01*
X10542619Y-12403238D02*
X10552143Y-12384190D01*
X10552143Y-12384190D02*
X10561667Y-12374667D01*
X10561667Y-12374667D02*
X10580714Y-12365143D01*
X10580714Y-12365143D02*
X10599762Y-12365143D01*
X10666429Y-12498476D02*
X10666429Y-12365143D01*
X10666429Y-12298476D02*
X10656905Y-12308000D01*
X10656905Y-12308000D02*
X10666429Y-12317524D01*
X10666429Y-12317524D02*
X10675952Y-12308000D01*
X10675952Y-12308000D02*
X10666429Y-12298476D01*
X10666429Y-12298476D02*
X10666429Y-12317524D01*
X10790238Y-12498476D02*
X10771190Y-12488952D01*
X10771190Y-12488952D02*
X10761667Y-12469905D01*
X10761667Y-12469905D02*
X10761667Y-12298476D01*
X10895000Y-12498476D02*
X10875952Y-12488952D01*
X10875952Y-12488952D02*
X10866429Y-12469905D01*
X10866429Y-12469905D02*
X10866429Y-12298476D01*
X11091190Y-12498476D02*
X11091190Y-12298476D01*
X11091190Y-12298476D02*
X11157857Y-12441333D01*
X11157857Y-12441333D02*
X11224524Y-12298476D01*
X11224524Y-12298476D02*
X11224524Y-12498476D01*
X11405476Y-12498476D02*
X11405476Y-12393714D01*
X11405476Y-12393714D02*
X11395952Y-12374667D01*
X11395952Y-12374667D02*
X11376905Y-12365143D01*
X11376905Y-12365143D02*
X11338809Y-12365143D01*
X11338809Y-12365143D02*
X11319762Y-12374667D01*
X11405476Y-12488952D02*
X11386428Y-12498476D01*
X11386428Y-12498476D02*
X11338809Y-12498476D01*
X11338809Y-12498476D02*
X11319762Y-12488952D01*
X11319762Y-12488952D02*
X11310238Y-12469905D01*
X11310238Y-12469905D02*
X11310238Y-12450857D01*
X11310238Y-12450857D02*
X11319762Y-12431809D01*
X11319762Y-12431809D02*
X11338809Y-12422286D01*
X11338809Y-12422286D02*
X11386428Y-12422286D01*
X11386428Y-12422286D02*
X11405476Y-12412762D01*
X11500714Y-12365143D02*
X11500714Y-12565143D01*
X11500714Y-12374667D02*
X11519762Y-12365143D01*
X11519762Y-12365143D02*
X11557857Y-12365143D01*
X11557857Y-12365143D02*
X11576905Y-12374667D01*
X11576905Y-12374667D02*
X11586428Y-12384190D01*
X11586428Y-12384190D02*
X11595952Y-12403238D01*
X11595952Y-12403238D02*
X11595952Y-12460381D01*
X11595952Y-12460381D02*
X11586428Y-12479428D01*
X11586428Y-12479428D02*
X11576905Y-12488952D01*
X11576905Y-12488952D02*
X11557857Y-12498476D01*
X11557857Y-12498476D02*
X11519762Y-12498476D01*
X11519762Y-12498476D02*
X11500714Y-12488952D01*
X11681667Y-12479428D02*
X11691190Y-12488952D01*
X11691190Y-12488952D02*
X11681667Y-12498476D01*
X11681667Y-12498476D02*
X11672143Y-12488952D01*
X11672143Y-12488952D02*
X11681667Y-12479428D01*
X11681667Y-12479428D02*
X11681667Y-12498476D01*
X11681667Y-12374667D02*
X11691190Y-12384190D01*
X11691190Y-12384190D02*
X11681667Y-12393714D01*
X11681667Y-12393714D02*
X11672143Y-12384190D01*
X11672143Y-12384190D02*
X11681667Y-12374667D01*
X11681667Y-12374667D02*
X11681667Y-12393714D01*
D12*
X10055000Y-12825000D02*
X10095000Y-12865000D01*
X10095000Y-12825000D02*
X10055000Y-12865000D01*
D11*
X10380714Y-12718476D02*
X10399762Y-12718476D01*
X10399762Y-12718476D02*
X10418810Y-12728000D01*
X10418810Y-12728000D02*
X10428333Y-12737524D01*
X10428333Y-12737524D02*
X10437857Y-12756571D01*
X10437857Y-12756571D02*
X10447381Y-12794667D01*
X10447381Y-12794667D02*
X10447381Y-12842286D01*
X10447381Y-12842286D02*
X10437857Y-12880381D01*
X10437857Y-12880381D02*
X10428333Y-12899428D01*
X10428333Y-12899428D02*
X10418810Y-12908952D01*
X10418810Y-12908952D02*
X10399762Y-12918476D01*
X10399762Y-12918476D02*
X10380714Y-12918476D01*
X10380714Y-12918476D02*
X10361667Y-12908952D01*
X10361667Y-12908952D02*
X10352143Y-12899428D01*
X10352143Y-12899428D02*
X10342619Y-12880381D01*
X10342619Y-12880381D02*
X10333095Y-12842286D01*
X10333095Y-12842286D02*
X10333095Y-12794667D01*
X10333095Y-12794667D02*
X10342619Y-12756571D01*
X10342619Y-12756571D02*
X10352143Y-12737524D01*
X10352143Y-12737524D02*
X10361667Y-12728000D01*
X10361667Y-12728000D02*
X10380714Y-12718476D01*
X10533095Y-12899428D02*
X10542619Y-12908952D01*
X10542619Y-12908952D02*
X10533095Y-12918476D01*
X10533095Y-12918476D02*
X10523571Y-12908952D01*
X10523571Y-12908952D02*
X10533095Y-12899428D01*
X10533095Y-12899428D02*
X10533095Y-12918476D01*
X10714048Y-12785143D02*
X10714048Y-12918476D01*
X10666429Y-12708952D02*
X10618810Y-12851809D01*
X10618810Y-12851809D02*
X10742619Y-12851809D01*
X10856905Y-12718476D02*
X10875952Y-12718476D01*
X10875952Y-12718476D02*
X10895000Y-12728000D01*
X10895000Y-12728000D02*
X10904524Y-12737524D01*
X10904524Y-12737524D02*
X10914048Y-12756571D01*
X10914048Y-12756571D02*
X10923571Y-12794667D01*
X10923571Y-12794667D02*
X10923571Y-12842286D01*
X10923571Y-12842286D02*
X10914048Y-12880381D01*
X10914048Y-12880381D02*
X10904524Y-12899428D01*
X10904524Y-12899428D02*
X10895000Y-12908952D01*
X10895000Y-12908952D02*
X10875952Y-12918476D01*
X10875952Y-12918476D02*
X10856905Y-12918476D01*
X10856905Y-12918476D02*
X10837857Y-12908952D01*
X10837857Y-12908952D02*
X10828333Y-12899428D01*
X10828333Y-12899428D02*
X10818810Y-12880381D01*
X10818810Y-12880381D02*
X10809286Y-12842286D01*
X10809286Y-12842286D02*
X10809286Y-12794667D01*
X10809286Y-12794667D02*
X10818810Y-12756571D01*
X10818810Y-12756571D02*
X10828333Y-12737524D01*
X10828333Y-12737524D02*
X10837857Y-12728000D01*
X10837857Y-12728000D02*
X10856905Y-12718476D01*
X11047381Y-12718476D02*
X11066429Y-12718476D01*
X11066429Y-12718476D02*
X11085476Y-12728000D01*
X11085476Y-12728000D02*
X11095000Y-12737524D01*
X11095000Y-12737524D02*
X11104524Y-12756571D01*
X11104524Y-12756571D02*
X11114048Y-12794667D01*
X11114048Y-12794667D02*
X11114048Y-12842286D01*
X11114048Y-12842286D02*
X11104524Y-12880381D01*
X11104524Y-12880381D02*
X11095000Y-12899428D01*
X11095000Y-12899428D02*
X11085476Y-12908952D01*
X11085476Y-12908952D02*
X11066429Y-12918476D01*
X11066429Y-12918476D02*
X11047381Y-12918476D01*
X11047381Y-12918476D02*
X11028333Y-12908952D01*
X11028333Y-12908952D02*
X11018810Y-12899428D01*
X11018810Y-12899428D02*
X11009286Y-12880381D01*
X11009286Y-12880381D02*
X10999762Y-12842286D01*
X10999762Y-12842286D02*
X10999762Y-12794667D01*
X10999762Y-12794667D02*
X11009286Y-12756571D01*
X11009286Y-12756571D02*
X11018810Y-12737524D01*
X11018810Y-12737524D02*
X11028333Y-12728000D01*
X11028333Y-12728000D02*
X11047381Y-12718476D01*
X11199762Y-12918476D02*
X11199762Y-12785143D01*
X11199762Y-12804190D02*
X11209286Y-12794667D01*
X11209286Y-12794667D02*
X11228333Y-12785143D01*
X11228333Y-12785143D02*
X11256905Y-12785143D01*
X11256905Y-12785143D02*
X11275952Y-12794667D01*
X11275952Y-12794667D02*
X11285476Y-12813714D01*
X11285476Y-12813714D02*
X11285476Y-12918476D01*
X11285476Y-12813714D02*
X11295000Y-12794667D01*
X11295000Y-12794667D02*
X11314048Y-12785143D01*
X11314048Y-12785143D02*
X11342619Y-12785143D01*
X11342619Y-12785143D02*
X11361667Y-12794667D01*
X11361667Y-12794667D02*
X11371190Y-12813714D01*
X11371190Y-12813714D02*
X11371190Y-12918476D01*
X11466429Y-12918476D02*
X11466429Y-12785143D01*
X11466429Y-12804190D02*
X11475952Y-12794667D01*
X11475952Y-12794667D02*
X11495000Y-12785143D01*
X11495000Y-12785143D02*
X11523571Y-12785143D01*
X11523571Y-12785143D02*
X11542619Y-12794667D01*
X11542619Y-12794667D02*
X11552143Y-12813714D01*
X11552143Y-12813714D02*
X11552143Y-12918476D01*
X11552143Y-12813714D02*
X11561667Y-12794667D01*
X11561667Y-12794667D02*
X11580714Y-12785143D01*
X11580714Y-12785143D02*
X11609286Y-12785143D01*
X11609286Y-12785143D02*
X11628333Y-12794667D01*
X11628333Y-12794667D02*
X11637857Y-12813714D01*
X11637857Y-12813714D02*
X11637857Y-12918476D01*
X11995952Y-12708952D02*
X11824524Y-12966095D01*
X12220714Y-12718476D02*
X12239762Y-12718476D01*
X12239762Y-12718476D02*
X12258810Y-12728000D01*
X12258810Y-12728000D02*
X12268333Y-12737524D01*
X12268333Y-12737524D02*
X12277857Y-12756571D01*
X12277857Y-12756571D02*
X12287381Y-12794667D01*
X12287381Y-12794667D02*
X12287381Y-12842286D01*
X12287381Y-12842286D02*
X12277857Y-12880381D01*
X12277857Y-12880381D02*
X12268333Y-12899428D01*
X12268333Y-12899428D02*
X12258810Y-12908952D01*
X12258810Y-12908952D02*
X12239762Y-12918476D01*
X12239762Y-12918476D02*
X12220714Y-12918476D01*
X12220714Y-12918476D02*
X12201667Y-12908952D01*
X12201667Y-12908952D02*
X12192143Y-12899428D01*
X12192143Y-12899428D02*
X12182619Y-12880381D01*
X12182619Y-12880381D02*
X12173095Y-12842286D01*
X12173095Y-12842286D02*
X12173095Y-12794667D01*
X12173095Y-12794667D02*
X12182619Y-12756571D01*
X12182619Y-12756571D02*
X12192143Y-12737524D01*
X12192143Y-12737524D02*
X12201667Y-12728000D01*
X12201667Y-12728000D02*
X12220714Y-12718476D01*
X12373095Y-12899428D02*
X12382619Y-12908952D01*
X12382619Y-12908952D02*
X12373095Y-12918476D01*
X12373095Y-12918476D02*
X12363571Y-12908952D01*
X12363571Y-12908952D02*
X12373095Y-12899428D01*
X12373095Y-12899428D02*
X12373095Y-12918476D01*
X12506429Y-12718476D02*
X12525476Y-12718476D01*
X12525476Y-12718476D02*
X12544524Y-12728000D01*
X12544524Y-12728000D02*
X12554048Y-12737524D01*
X12554048Y-12737524D02*
X12563571Y-12756571D01*
X12563571Y-12756571D02*
X12573095Y-12794667D01*
X12573095Y-12794667D02*
X12573095Y-12842286D01*
X12573095Y-12842286D02*
X12563571Y-12880381D01*
X12563571Y-12880381D02*
X12554048Y-12899428D01*
X12554048Y-12899428D02*
X12544524Y-12908952D01*
X12544524Y-12908952D02*
X12525476Y-12918476D01*
X12525476Y-12918476D02*
X12506429Y-12918476D01*
X12506429Y-12918476D02*
X12487381Y-12908952D01*
X12487381Y-12908952D02*
X12477857Y-12899428D01*
X12477857Y-12899428D02*
X12468333Y-12880381D01*
X12468333Y-12880381D02*
X12458810Y-12842286D01*
X12458810Y-12842286D02*
X12458810Y-12794667D01*
X12458810Y-12794667D02*
X12468333Y-12756571D01*
X12468333Y-12756571D02*
X12477857Y-12737524D01*
X12477857Y-12737524D02*
X12487381Y-12728000D01*
X12487381Y-12728000D02*
X12506429Y-12718476D01*
X12763571Y-12918476D02*
X12649286Y-12918476D01*
X12706429Y-12918476D02*
X12706429Y-12718476D01*
X12706429Y-12718476D02*
X12687381Y-12747048D01*
X12687381Y-12747048D02*
X12668333Y-12766095D01*
X12668333Y-12766095D02*
X12649286Y-12775619D01*
X12944524Y-12718476D02*
X12849286Y-12718476D01*
X12849286Y-12718476D02*
X12839762Y-12813714D01*
X12839762Y-12813714D02*
X12849286Y-12804190D01*
X12849286Y-12804190D02*
X12868333Y-12794667D01*
X12868333Y-12794667D02*
X12915952Y-12794667D01*
X12915952Y-12794667D02*
X12935000Y-12804190D01*
X12935000Y-12804190D02*
X12944524Y-12813714D01*
X12944524Y-12813714D02*
X12954048Y-12832762D01*
X12954048Y-12832762D02*
X12954048Y-12880381D01*
X12954048Y-12880381D02*
X12944524Y-12899428D01*
X12944524Y-12899428D02*
X12935000Y-12908952D01*
X12935000Y-12908952D02*
X12915952Y-12918476D01*
X12915952Y-12918476D02*
X12868333Y-12918476D01*
X12868333Y-12918476D02*
X12849286Y-12908952D01*
X12849286Y-12908952D02*
X12839762Y-12899428D01*
X13020714Y-12718476D02*
X13154048Y-12718476D01*
X13154048Y-12718476D02*
X13068333Y-12918476D01*
X13220714Y-12718476D02*
X13220714Y-12756571D01*
X13296905Y-12718476D02*
X13296905Y-12756571D01*
X13559762Y-12994667D02*
X13550238Y-12985143D01*
X13550238Y-12985143D02*
X13531191Y-12956571D01*
X13531191Y-12956571D02*
X13521667Y-12937524D01*
X13521667Y-12937524D02*
X13512143Y-12908952D01*
X13512143Y-12908952D02*
X13502619Y-12861333D01*
X13502619Y-12861333D02*
X13502619Y-12823238D01*
X13502619Y-12823238D02*
X13512143Y-12775619D01*
X13512143Y-12775619D02*
X13521667Y-12747048D01*
X13521667Y-12747048D02*
X13531191Y-12728000D01*
X13531191Y-12728000D02*
X13550238Y-12699428D01*
X13550238Y-12699428D02*
X13559762Y-12689905D01*
X13664524Y-12804190D02*
X13645476Y-12794667D01*
X13645476Y-12794667D02*
X13635952Y-12785143D01*
X13635952Y-12785143D02*
X13626429Y-12766095D01*
X13626429Y-12766095D02*
X13626429Y-12756571D01*
X13626429Y-12756571D02*
X13635952Y-12737524D01*
X13635952Y-12737524D02*
X13645476Y-12728000D01*
X13645476Y-12728000D02*
X13664524Y-12718476D01*
X13664524Y-12718476D02*
X13702619Y-12718476D01*
X13702619Y-12718476D02*
X13721667Y-12728000D01*
X13721667Y-12728000D02*
X13731191Y-12737524D01*
X13731191Y-12737524D02*
X13740714Y-12756571D01*
X13740714Y-12756571D02*
X13740714Y-12766095D01*
X13740714Y-12766095D02*
X13731191Y-12785143D01*
X13731191Y-12785143D02*
X13721667Y-12794667D01*
X13721667Y-12794667D02*
X13702619Y-12804190D01*
X13702619Y-12804190D02*
X13664524Y-12804190D01*
X13664524Y-12804190D02*
X13645476Y-12813714D01*
X13645476Y-12813714D02*
X13635952Y-12823238D01*
X13635952Y-12823238D02*
X13626429Y-12842286D01*
X13626429Y-12842286D02*
X13626429Y-12880381D01*
X13626429Y-12880381D02*
X13635952Y-12899428D01*
X13635952Y-12899428D02*
X13645476Y-12908952D01*
X13645476Y-12908952D02*
X13664524Y-12918476D01*
X13664524Y-12918476D02*
X13702619Y-12918476D01*
X13702619Y-12918476D02*
X13721667Y-12908952D01*
X13721667Y-12908952D02*
X13731191Y-12899428D01*
X13731191Y-12899428D02*
X13740714Y-12880381D01*
X13740714Y-12880381D02*
X13740714Y-12842286D01*
X13740714Y-12842286D02*
X13731191Y-12823238D01*
X13731191Y-12823238D02*
X13721667Y-12813714D01*
X13721667Y-12813714D02*
X13702619Y-12804190D01*
X13946429Y-12918476D02*
X13946429Y-12718476D01*
X14032143Y-12918476D02*
X14032143Y-12813714D01*
X14032143Y-12813714D02*
X14022619Y-12794667D01*
X14022619Y-12794667D02*
X14003572Y-12785143D01*
X14003572Y-12785143D02*
X13975000Y-12785143D01*
X13975000Y-12785143D02*
X13955952Y-12794667D01*
X13955952Y-12794667D02*
X13946429Y-12804190D01*
X14155952Y-12918476D02*
X14136905Y-12908952D01*
X14136905Y-12908952D02*
X14127381Y-12899428D01*
X14127381Y-12899428D02*
X14117857Y-12880381D01*
X14117857Y-12880381D02*
X14117857Y-12823238D01*
X14117857Y-12823238D02*
X14127381Y-12804190D01*
X14127381Y-12804190D02*
X14136905Y-12794667D01*
X14136905Y-12794667D02*
X14155952Y-12785143D01*
X14155952Y-12785143D02*
X14184524Y-12785143D01*
X14184524Y-12785143D02*
X14203572Y-12794667D01*
X14203572Y-12794667D02*
X14213095Y-12804190D01*
X14213095Y-12804190D02*
X14222619Y-12823238D01*
X14222619Y-12823238D02*
X14222619Y-12880381D01*
X14222619Y-12880381D02*
X14213095Y-12899428D01*
X14213095Y-12899428D02*
X14203572Y-12908952D01*
X14203572Y-12908952D02*
X14184524Y-12918476D01*
X14184524Y-12918476D02*
X14155952Y-12918476D01*
X14336905Y-12918476D02*
X14317857Y-12908952D01*
X14317857Y-12908952D02*
X14308333Y-12889905D01*
X14308333Y-12889905D02*
X14308333Y-12718476D01*
X14489286Y-12908952D02*
X14470238Y-12918476D01*
X14470238Y-12918476D02*
X14432143Y-12918476D01*
X14432143Y-12918476D02*
X14413095Y-12908952D01*
X14413095Y-12908952D02*
X14403572Y-12889905D01*
X14403572Y-12889905D02*
X14403572Y-12813714D01*
X14403572Y-12813714D02*
X14413095Y-12794667D01*
X14413095Y-12794667D02*
X14432143Y-12785143D01*
X14432143Y-12785143D02*
X14470238Y-12785143D01*
X14470238Y-12785143D02*
X14489286Y-12794667D01*
X14489286Y-12794667D02*
X14498810Y-12813714D01*
X14498810Y-12813714D02*
X14498810Y-12832762D01*
X14498810Y-12832762D02*
X14403572Y-12851809D01*
X14575000Y-12908952D02*
X14594048Y-12918476D01*
X14594048Y-12918476D02*
X14632143Y-12918476D01*
X14632143Y-12918476D02*
X14651191Y-12908952D01*
X14651191Y-12908952D02*
X14660714Y-12889905D01*
X14660714Y-12889905D02*
X14660714Y-12880381D01*
X14660714Y-12880381D02*
X14651191Y-12861333D01*
X14651191Y-12861333D02*
X14632143Y-12851809D01*
X14632143Y-12851809D02*
X14603572Y-12851809D01*
X14603572Y-12851809D02*
X14584524Y-12842286D01*
X14584524Y-12842286D02*
X14575000Y-12823238D01*
X14575000Y-12823238D02*
X14575000Y-12813714D01*
X14575000Y-12813714D02*
X14584524Y-12794667D01*
X14584524Y-12794667D02*
X14603572Y-12785143D01*
X14603572Y-12785143D02*
X14632143Y-12785143D01*
X14632143Y-12785143D02*
X14651191Y-12794667D01*
X14727381Y-12994667D02*
X14736905Y-12985143D01*
X14736905Y-12985143D02*
X14755953Y-12956571D01*
X14755953Y-12956571D02*
X14765476Y-12937524D01*
X14765476Y-12937524D02*
X14775000Y-12908952D01*
X14775000Y-12908952D02*
X14784524Y-12861333D01*
X14784524Y-12861333D02*
X14784524Y-12823238D01*
X14784524Y-12823238D02*
X14775000Y-12775619D01*
X14775000Y-12775619D02*
X14765476Y-12747048D01*
X14765476Y-12747048D02*
X14755953Y-12728000D01*
X14755953Y-12728000D02*
X14736905Y-12699428D01*
X14736905Y-12699428D02*
X14727381Y-12689905D01*
D10*
X10095000Y-13109000D02*
G75*
G03*
X10095000Y-13109000I-50000J0D01*
G01*
D11*
X10447381Y-13182476D02*
X10333095Y-13182476D01*
X10390238Y-13182476D02*
X10390238Y-12982476D01*
X10390238Y-12982476D02*
X10371190Y-13011048D01*
X10371190Y-13011048D02*
X10352143Y-13030095D01*
X10352143Y-13030095D02*
X10333095Y-13039619D01*
X10533095Y-13163428D02*
X10542619Y-13172952D01*
X10542619Y-13172952D02*
X10533095Y-13182476D01*
X10533095Y-13182476D02*
X10523571Y-13172952D01*
X10523571Y-13172952D02*
X10533095Y-13163428D01*
X10533095Y-13163428D02*
X10533095Y-13182476D01*
X10666429Y-12982476D02*
X10685476Y-12982476D01*
X10685476Y-12982476D02*
X10704524Y-12992000D01*
X10704524Y-12992000D02*
X10714048Y-13001524D01*
X10714048Y-13001524D02*
X10723571Y-13020571D01*
X10723571Y-13020571D02*
X10733095Y-13058667D01*
X10733095Y-13058667D02*
X10733095Y-13106286D01*
X10733095Y-13106286D02*
X10723571Y-13144381D01*
X10723571Y-13144381D02*
X10714048Y-13163428D01*
X10714048Y-13163428D02*
X10704524Y-13172952D01*
X10704524Y-13172952D02*
X10685476Y-13182476D01*
X10685476Y-13182476D02*
X10666429Y-13182476D01*
X10666429Y-13182476D02*
X10647381Y-13172952D01*
X10647381Y-13172952D02*
X10637857Y-13163428D01*
X10637857Y-13163428D02*
X10628333Y-13144381D01*
X10628333Y-13144381D02*
X10618810Y-13106286D01*
X10618810Y-13106286D02*
X10618810Y-13058667D01*
X10618810Y-13058667D02*
X10628333Y-13020571D01*
X10628333Y-13020571D02*
X10637857Y-13001524D01*
X10637857Y-13001524D02*
X10647381Y-12992000D01*
X10647381Y-12992000D02*
X10666429Y-12982476D01*
X10856905Y-12982476D02*
X10875952Y-12982476D01*
X10875952Y-12982476D02*
X10895000Y-12992000D01*
X10895000Y-12992000D02*
X10904524Y-13001524D01*
X10904524Y-13001524D02*
X10914048Y-13020571D01*
X10914048Y-13020571D02*
X10923571Y-13058667D01*
X10923571Y-13058667D02*
X10923571Y-13106286D01*
X10923571Y-13106286D02*
X10914048Y-13144381D01*
X10914048Y-13144381D02*
X10904524Y-13163428D01*
X10904524Y-13163428D02*
X10895000Y-13172952D01*
X10895000Y-13172952D02*
X10875952Y-13182476D01*
X10875952Y-13182476D02*
X10856905Y-13182476D01*
X10856905Y-13182476D02*
X10837857Y-13172952D01*
X10837857Y-13172952D02*
X10828333Y-13163428D01*
X10828333Y-13163428D02*
X10818810Y-13144381D01*
X10818810Y-13144381D02*
X10809286Y-13106286D01*
X10809286Y-13106286D02*
X10809286Y-13058667D01*
X10809286Y-13058667D02*
X10818810Y-13020571D01*
X10818810Y-13020571D02*
X10828333Y-13001524D01*
X10828333Y-13001524D02*
X10837857Y-12992000D01*
X10837857Y-12992000D02*
X10856905Y-12982476D01*
X11047381Y-12982476D02*
X11066429Y-12982476D01*
X11066429Y-12982476D02*
X11085476Y-12992000D01*
X11085476Y-12992000D02*
X11095000Y-13001524D01*
X11095000Y-13001524D02*
X11104524Y-13020571D01*
X11104524Y-13020571D02*
X11114048Y-13058667D01*
X11114048Y-13058667D02*
X11114048Y-13106286D01*
X11114048Y-13106286D02*
X11104524Y-13144381D01*
X11104524Y-13144381D02*
X11095000Y-13163428D01*
X11095000Y-13163428D02*
X11085476Y-13172952D01*
X11085476Y-13172952D02*
X11066429Y-13182476D01*
X11066429Y-13182476D02*
X11047381Y-13182476D01*
X11047381Y-13182476D02*
X11028333Y-13172952D01*
X11028333Y-13172952D02*
X11018810Y-13163428D01*
X11018810Y-13163428D02*
X11009286Y-13144381D01*
X11009286Y-13144381D02*
X10999762Y-13106286D01*
X10999762Y-13106286D02*
X10999762Y-13058667D01*
X10999762Y-13058667D02*
X11009286Y-13020571D01*
X11009286Y-13020571D02*
X11018810Y-13001524D01*
X11018810Y-13001524D02*
X11028333Y-12992000D01*
X11028333Y-12992000D02*
X11047381Y-12982476D01*
X11199762Y-13182476D02*
X11199762Y-13049143D01*
X11199762Y-13068190D02*
X11209286Y-13058667D01*
X11209286Y-13058667D02*
X11228333Y-13049143D01*
X11228333Y-13049143D02*
X11256905Y-13049143D01*
X11256905Y-13049143D02*
X11275952Y-13058667D01*
X11275952Y-13058667D02*
X11285476Y-13077714D01*
X11285476Y-13077714D02*
X11285476Y-13182476D01*
X11285476Y-13077714D02*
X11295000Y-13058667D01*
X11295000Y-13058667D02*
X11314048Y-13049143D01*
X11314048Y-13049143D02*
X11342619Y-13049143D01*
X11342619Y-13049143D02*
X11361667Y-13058667D01*
X11361667Y-13058667D02*
X11371190Y-13077714D01*
X11371190Y-13077714D02*
X11371190Y-13182476D01*
X11466429Y-13182476D02*
X11466429Y-13049143D01*
X11466429Y-13068190D02*
X11475952Y-13058667D01*
X11475952Y-13058667D02*
X11495000Y-13049143D01*
X11495000Y-13049143D02*
X11523571Y-13049143D01*
X11523571Y-13049143D02*
X11542619Y-13058667D01*
X11542619Y-13058667D02*
X11552143Y-13077714D01*
X11552143Y-13077714D02*
X11552143Y-13182476D01*
X11552143Y-13077714D02*
X11561667Y-13058667D01*
X11561667Y-13058667D02*
X11580714Y-13049143D01*
X11580714Y-13049143D02*
X11609286Y-13049143D01*
X11609286Y-13049143D02*
X11628333Y-13058667D01*
X11628333Y-13058667D02*
X11637857Y-13077714D01*
X11637857Y-13077714D02*
X11637857Y-13182476D01*
X11995952Y-12972952D02*
X11824524Y-13230095D01*
X12220714Y-12982476D02*
X12239762Y-12982476D01*
X12239762Y-12982476D02*
X12258810Y-12992000D01*
X12258810Y-12992000D02*
X12268333Y-13001524D01*
X12268333Y-13001524D02*
X12277857Y-13020571D01*
X12277857Y-13020571D02*
X12287381Y-13058667D01*
X12287381Y-13058667D02*
X12287381Y-13106286D01*
X12287381Y-13106286D02*
X12277857Y-13144381D01*
X12277857Y-13144381D02*
X12268333Y-13163428D01*
X12268333Y-13163428D02*
X12258810Y-13172952D01*
X12258810Y-13172952D02*
X12239762Y-13182476D01*
X12239762Y-13182476D02*
X12220714Y-13182476D01*
X12220714Y-13182476D02*
X12201667Y-13172952D01*
X12201667Y-13172952D02*
X12192143Y-13163428D01*
X12192143Y-13163428D02*
X12182619Y-13144381D01*
X12182619Y-13144381D02*
X12173095Y-13106286D01*
X12173095Y-13106286D02*
X12173095Y-13058667D01*
X12173095Y-13058667D02*
X12182619Y-13020571D01*
X12182619Y-13020571D02*
X12192143Y-13001524D01*
X12192143Y-13001524D02*
X12201667Y-12992000D01*
X12201667Y-12992000D02*
X12220714Y-12982476D01*
X12373095Y-13163428D02*
X12382619Y-13172952D01*
X12382619Y-13172952D02*
X12373095Y-13182476D01*
X12373095Y-13182476D02*
X12363571Y-13172952D01*
X12363571Y-13172952D02*
X12373095Y-13163428D01*
X12373095Y-13163428D02*
X12373095Y-13182476D01*
X12506429Y-12982476D02*
X12525476Y-12982476D01*
X12525476Y-12982476D02*
X12544524Y-12992000D01*
X12544524Y-12992000D02*
X12554048Y-13001524D01*
X12554048Y-13001524D02*
X12563571Y-13020571D01*
X12563571Y-13020571D02*
X12573095Y-13058667D01*
X12573095Y-13058667D02*
X12573095Y-13106286D01*
X12573095Y-13106286D02*
X12563571Y-13144381D01*
X12563571Y-13144381D02*
X12554048Y-13163428D01*
X12554048Y-13163428D02*
X12544524Y-13172952D01*
X12544524Y-13172952D02*
X12525476Y-13182476D01*
X12525476Y-13182476D02*
X12506429Y-13182476D01*
X12506429Y-13182476D02*
X12487381Y-13172952D01*
X12487381Y-13172952D02*
X12477857Y-13163428D01*
X12477857Y-13163428D02*
X12468333Y-13144381D01*
X12468333Y-13144381D02*
X12458810Y-13106286D01*
X12458810Y-13106286D02*
X12458810Y-13058667D01*
X12458810Y-13058667D02*
X12468333Y-13020571D01*
X12468333Y-13020571D02*
X12477857Y-13001524D01*
X12477857Y-13001524D02*
X12487381Y-12992000D01*
X12487381Y-12992000D02*
X12506429Y-12982476D01*
X12639762Y-12982476D02*
X12763571Y-12982476D01*
X12763571Y-12982476D02*
X12696905Y-13058667D01*
X12696905Y-13058667D02*
X12725476Y-13058667D01*
X12725476Y-13058667D02*
X12744524Y-13068190D01*
X12744524Y-13068190D02*
X12754048Y-13077714D01*
X12754048Y-13077714D02*
X12763571Y-13096762D01*
X12763571Y-13096762D02*
X12763571Y-13144381D01*
X12763571Y-13144381D02*
X12754048Y-13163428D01*
X12754048Y-13163428D02*
X12744524Y-13172952D01*
X12744524Y-13172952D02*
X12725476Y-13182476D01*
X12725476Y-13182476D02*
X12668333Y-13182476D01*
X12668333Y-13182476D02*
X12649286Y-13172952D01*
X12649286Y-13172952D02*
X12639762Y-13163428D01*
X12858810Y-13182476D02*
X12896905Y-13182476D01*
X12896905Y-13182476D02*
X12915952Y-13172952D01*
X12915952Y-13172952D02*
X12925476Y-13163428D01*
X12925476Y-13163428D02*
X12944524Y-13134857D01*
X12944524Y-13134857D02*
X12954048Y-13096762D01*
X12954048Y-13096762D02*
X12954048Y-13020571D01*
X12954048Y-13020571D02*
X12944524Y-13001524D01*
X12944524Y-13001524D02*
X12935000Y-12992000D01*
X12935000Y-12992000D02*
X12915952Y-12982476D01*
X12915952Y-12982476D02*
X12877857Y-12982476D01*
X12877857Y-12982476D02*
X12858810Y-12992000D01*
X12858810Y-12992000D02*
X12849286Y-13001524D01*
X12849286Y-13001524D02*
X12839762Y-13020571D01*
X12839762Y-13020571D02*
X12839762Y-13068190D01*
X12839762Y-13068190D02*
X12849286Y-13087238D01*
X12849286Y-13087238D02*
X12858810Y-13096762D01*
X12858810Y-13096762D02*
X12877857Y-13106286D01*
X12877857Y-13106286D02*
X12915952Y-13106286D01*
X12915952Y-13106286D02*
X12935000Y-13096762D01*
X12935000Y-13096762D02*
X12944524Y-13087238D01*
X12944524Y-13087238D02*
X12954048Y-13068190D01*
X13125476Y-13049143D02*
X13125476Y-13182476D01*
X13077857Y-12972952D02*
X13030238Y-13115809D01*
X13030238Y-13115809D02*
X13154048Y-13115809D01*
X13220714Y-12982476D02*
X13220714Y-13020571D01*
X13296905Y-12982476D02*
X13296905Y-13020571D01*
X13559762Y-13258667D02*
X13550238Y-13249143D01*
X13550238Y-13249143D02*
X13531191Y-13220571D01*
X13531191Y-13220571D02*
X13521667Y-13201524D01*
X13521667Y-13201524D02*
X13512143Y-13172952D01*
X13512143Y-13172952D02*
X13502619Y-13125333D01*
X13502619Y-13125333D02*
X13502619Y-13087238D01*
X13502619Y-13087238D02*
X13512143Y-13039619D01*
X13512143Y-13039619D02*
X13521667Y-13011048D01*
X13521667Y-13011048D02*
X13531191Y-12992000D01*
X13531191Y-12992000D02*
X13550238Y-12963428D01*
X13550238Y-12963428D02*
X13559762Y-12953905D01*
X13721667Y-12982476D02*
X13683571Y-12982476D01*
X13683571Y-12982476D02*
X13664524Y-12992000D01*
X13664524Y-12992000D02*
X13655000Y-13001524D01*
X13655000Y-13001524D02*
X13635952Y-13030095D01*
X13635952Y-13030095D02*
X13626429Y-13068190D01*
X13626429Y-13068190D02*
X13626429Y-13144381D01*
X13626429Y-13144381D02*
X13635952Y-13163428D01*
X13635952Y-13163428D02*
X13645476Y-13172952D01*
X13645476Y-13172952D02*
X13664524Y-13182476D01*
X13664524Y-13182476D02*
X13702619Y-13182476D01*
X13702619Y-13182476D02*
X13721667Y-13172952D01*
X13721667Y-13172952D02*
X13731191Y-13163428D01*
X13731191Y-13163428D02*
X13740714Y-13144381D01*
X13740714Y-13144381D02*
X13740714Y-13096762D01*
X13740714Y-13096762D02*
X13731191Y-13077714D01*
X13731191Y-13077714D02*
X13721667Y-13068190D01*
X13721667Y-13068190D02*
X13702619Y-13058667D01*
X13702619Y-13058667D02*
X13664524Y-13058667D01*
X13664524Y-13058667D02*
X13645476Y-13068190D01*
X13645476Y-13068190D02*
X13635952Y-13077714D01*
X13635952Y-13077714D02*
X13626429Y-13096762D01*
X13946429Y-13182476D02*
X13946429Y-12982476D01*
X14032143Y-13182476D02*
X14032143Y-13077714D01*
X14032143Y-13077714D02*
X14022619Y-13058667D01*
X14022619Y-13058667D02*
X14003572Y-13049143D01*
X14003572Y-13049143D02*
X13975000Y-13049143D01*
X13975000Y-13049143D02*
X13955952Y-13058667D01*
X13955952Y-13058667D02*
X13946429Y-13068190D01*
X14155952Y-13182476D02*
X14136905Y-13172952D01*
X14136905Y-13172952D02*
X14127381Y-13163428D01*
X14127381Y-13163428D02*
X14117857Y-13144381D01*
X14117857Y-13144381D02*
X14117857Y-13087238D01*
X14117857Y-13087238D02*
X14127381Y-13068190D01*
X14127381Y-13068190D02*
X14136905Y-13058667D01*
X14136905Y-13058667D02*
X14155952Y-13049143D01*
X14155952Y-13049143D02*
X14184524Y-13049143D01*
X14184524Y-13049143D02*
X14203572Y-13058667D01*
X14203572Y-13058667D02*
X14213095Y-13068190D01*
X14213095Y-13068190D02*
X14222619Y-13087238D01*
X14222619Y-13087238D02*
X14222619Y-13144381D01*
X14222619Y-13144381D02*
X14213095Y-13163428D01*
X14213095Y-13163428D02*
X14203572Y-13172952D01*
X14203572Y-13172952D02*
X14184524Y-13182476D01*
X14184524Y-13182476D02*
X14155952Y-13182476D01*
X14336905Y-13182476D02*
X14317857Y-13172952D01*
X14317857Y-13172952D02*
X14308333Y-13153905D01*
X14308333Y-13153905D02*
X14308333Y-12982476D01*
X14489286Y-13172952D02*
X14470238Y-13182476D01*
X14470238Y-13182476D02*
X14432143Y-13182476D01*
X14432143Y-13182476D02*
X14413095Y-13172952D01*
X14413095Y-13172952D02*
X14403572Y-13153905D01*
X14403572Y-13153905D02*
X14403572Y-13077714D01*
X14403572Y-13077714D02*
X14413095Y-13058667D01*
X14413095Y-13058667D02*
X14432143Y-13049143D01*
X14432143Y-13049143D02*
X14470238Y-13049143D01*
X14470238Y-13049143D02*
X14489286Y-13058667D01*
X14489286Y-13058667D02*
X14498810Y-13077714D01*
X14498810Y-13077714D02*
X14498810Y-13096762D01*
X14498810Y-13096762D02*
X14403572Y-13115809D01*
X14575000Y-13172952D02*
X14594048Y-13182476D01*
X14594048Y-13182476D02*
X14632143Y-13182476D01*
X14632143Y-13182476D02*
X14651191Y-13172952D01*
X14651191Y-13172952D02*
X14660714Y-13153905D01*
X14660714Y-13153905D02*
X14660714Y-13144381D01*
X14660714Y-13144381D02*
X14651191Y-13125333D01*
X14651191Y-13125333D02*
X14632143Y-13115809D01*
X14632143Y-13115809D02*
X14603572Y-13115809D01*
X14603572Y-13115809D02*
X14584524Y-13106286D01*
X14584524Y-13106286D02*
X14575000Y-13087238D01*
X14575000Y-13087238D02*
X14575000Y-13077714D01*
X14575000Y-13077714D02*
X14584524Y-13058667D01*
X14584524Y-13058667D02*
X14603572Y-13049143D01*
X14603572Y-13049143D02*
X14632143Y-13049143D01*
X14632143Y-13049143D02*
X14651191Y-13058667D01*
X14727381Y-13258667D02*
X14736905Y-13249143D01*
X14736905Y-13249143D02*
X14755953Y-13220571D01*
X14755953Y-13220571D02*
X14765476Y-13201524D01*
X14765476Y-13201524D02*
X14775000Y-13172952D01*
X14775000Y-13172952D02*
X14784524Y-13125333D01*
X14784524Y-13125333D02*
X14784524Y-13087238D01*
X14784524Y-13087238D02*
X14775000Y-13039619D01*
X14775000Y-13039619D02*
X14765476Y-13011048D01*
X14765476Y-13011048D02*
X14755953Y-12992000D01*
X14755953Y-12992000D02*
X14736905Y-12963428D01*
X14736905Y-12963428D02*
X14727381Y-12953905D01*
M02*
