G04 #@! TF.GenerationSoftware,KiCad,Pcbnew,(7.0.0)*
G04 #@! TF.CreationDate,2023-03-10T18:14:51+01:00*
G04 #@! TF.ProjectId,CapacitorBox0402,43617061-6369-4746-9f72-426f78303430,rev?*
G04 #@! TF.SameCoordinates,Original*
G04 #@! TF.FileFunction,Legend,Bot*
G04 #@! TF.FilePolarity,Positive*
%FSLAX46Y46*%
G04 Gerber Fmt 4.6, Leading zero omitted, Abs format (unit mm)*
G04 Created by KiCad (PCBNEW (7.0.0)) date 2023-03-10 18:14:51*
%MOMM*%
%LPD*%
G01*
G04 APERTURE LIST*
%ADD10C,0.150000*%
%ADD11R,1.700000X1.700000*%
G04 #@! TA.AperFunction,Profile*
%ADD12C,0.100000*%
G04 #@! TD*
G04 APERTURE END LIST*
D10*
X114945238Y-120243904D02*
X114945238Y-120815333D01*
X114945238Y-120815333D02*
X114983333Y-120929619D01*
X114983333Y-120929619D02*
X115059524Y-121005809D01*
X115059524Y-121005809D02*
X115173809Y-121043904D01*
X115173809Y-121043904D02*
X115250000Y-121043904D01*
X114183333Y-121043904D02*
X114564285Y-121043904D01*
X114564285Y-121043904D02*
X114564285Y-120243904D01*
X113459523Y-120967714D02*
X113497619Y-121005809D01*
X113497619Y-121005809D02*
X113611904Y-121043904D01*
X113611904Y-121043904D02*
X113688095Y-121043904D01*
X113688095Y-121043904D02*
X113802381Y-121005809D01*
X113802381Y-121005809D02*
X113878571Y-120929619D01*
X113878571Y-120929619D02*
X113916666Y-120853428D01*
X113916666Y-120853428D02*
X113954762Y-120701047D01*
X113954762Y-120701047D02*
X113954762Y-120586761D01*
X113954762Y-120586761D02*
X113916666Y-120434380D01*
X113916666Y-120434380D02*
X113878571Y-120358190D01*
X113878571Y-120358190D02*
X113802381Y-120282000D01*
X113802381Y-120282000D02*
X113688095Y-120243904D01*
X113688095Y-120243904D02*
X113611904Y-120243904D01*
X113611904Y-120243904D02*
X113497619Y-120282000D01*
X113497619Y-120282000D02*
X113459523Y-120320095D01*
X112888095Y-120243904D02*
X112888095Y-120815333D01*
X112888095Y-120815333D02*
X112926190Y-120929619D01*
X112926190Y-120929619D02*
X113002381Y-121005809D01*
X113002381Y-121005809D02*
X113116666Y-121043904D01*
X113116666Y-121043904D02*
X113192857Y-121043904D01*
X112126190Y-121043904D02*
X112507142Y-121043904D01*
X112507142Y-121043904D02*
X112507142Y-120243904D01*
X111402380Y-120967714D02*
X111440476Y-121005809D01*
X111440476Y-121005809D02*
X111554761Y-121043904D01*
X111554761Y-121043904D02*
X111630952Y-121043904D01*
X111630952Y-121043904D02*
X111745238Y-121005809D01*
X111745238Y-121005809D02*
X111821428Y-120929619D01*
X111821428Y-120929619D02*
X111859523Y-120853428D01*
X111859523Y-120853428D02*
X111897619Y-120701047D01*
X111897619Y-120701047D02*
X111897619Y-120586761D01*
X111897619Y-120586761D02*
X111859523Y-120434380D01*
X111859523Y-120434380D02*
X111821428Y-120358190D01*
X111821428Y-120358190D02*
X111745238Y-120282000D01*
X111745238Y-120282000D02*
X111630952Y-120243904D01*
X111630952Y-120243904D02*
X111554761Y-120243904D01*
X111554761Y-120243904D02*
X111440476Y-120282000D01*
X111440476Y-120282000D02*
X111402380Y-120320095D01*
X110830952Y-120243904D02*
X110830952Y-120815333D01*
X110830952Y-120815333D02*
X110869047Y-120929619D01*
X110869047Y-120929619D02*
X110945238Y-121005809D01*
X110945238Y-121005809D02*
X111059523Y-121043904D01*
X111059523Y-121043904D02*
X111135714Y-121043904D01*
X110069047Y-121043904D02*
X110449999Y-121043904D01*
X110449999Y-121043904D02*
X110449999Y-120243904D01*
X109345237Y-120967714D02*
X109383333Y-121005809D01*
X109383333Y-121005809D02*
X109497618Y-121043904D01*
X109497618Y-121043904D02*
X109573809Y-121043904D01*
X109573809Y-121043904D02*
X109688095Y-121005809D01*
X109688095Y-121005809D02*
X109764285Y-120929619D01*
X109764285Y-120929619D02*
X109802380Y-120853428D01*
X109802380Y-120853428D02*
X109840476Y-120701047D01*
X109840476Y-120701047D02*
X109840476Y-120586761D01*
X109840476Y-120586761D02*
X109802380Y-120434380D01*
X109802380Y-120434380D02*
X109764285Y-120358190D01*
X109764285Y-120358190D02*
X109688095Y-120282000D01*
X109688095Y-120282000D02*
X109573809Y-120243904D01*
X109573809Y-120243904D02*
X109497618Y-120243904D01*
X109497618Y-120243904D02*
X109383333Y-120282000D01*
X109383333Y-120282000D02*
X109345237Y-120320095D01*
X108773809Y-120243904D02*
X108773809Y-120815333D01*
X108773809Y-120815333D02*
X108811904Y-120929619D01*
X108811904Y-120929619D02*
X108888095Y-121005809D01*
X108888095Y-121005809D02*
X109002380Y-121043904D01*
X109002380Y-121043904D02*
X109078571Y-121043904D01*
X108011904Y-121043904D02*
X108392856Y-121043904D01*
X108392856Y-121043904D02*
X108392856Y-120243904D01*
X107288094Y-120967714D02*
X107326190Y-121005809D01*
X107326190Y-121005809D02*
X107440475Y-121043904D01*
X107440475Y-121043904D02*
X107516666Y-121043904D01*
X107516666Y-121043904D02*
X107630952Y-121005809D01*
X107630952Y-121005809D02*
X107707142Y-120929619D01*
X107707142Y-120929619D02*
X107745237Y-120853428D01*
X107745237Y-120853428D02*
X107783333Y-120701047D01*
X107783333Y-120701047D02*
X107783333Y-120586761D01*
X107783333Y-120586761D02*
X107745237Y-120434380D01*
X107745237Y-120434380D02*
X107707142Y-120358190D01*
X107707142Y-120358190D02*
X107630952Y-120282000D01*
X107630952Y-120282000D02*
X107516666Y-120243904D01*
X107516666Y-120243904D02*
X107440475Y-120243904D01*
X107440475Y-120243904D02*
X107326190Y-120282000D01*
X107326190Y-120282000D02*
X107288094Y-120320095D01*
%LPC*%
X115309523Y-101645904D02*
X115309523Y-100845904D01*
X115309523Y-100845904D02*
X115119047Y-100845904D01*
X115119047Y-100845904D02*
X115004761Y-100884000D01*
X115004761Y-100884000D02*
X114928571Y-100960190D01*
X114928571Y-100960190D02*
X114890476Y-101036380D01*
X114890476Y-101036380D02*
X114852380Y-101188761D01*
X114852380Y-101188761D02*
X114852380Y-101303047D01*
X114852380Y-101303047D02*
X114890476Y-101455428D01*
X114890476Y-101455428D02*
X114928571Y-101531619D01*
X114928571Y-101531619D02*
X115004761Y-101607809D01*
X115004761Y-101607809D02*
X115119047Y-101645904D01*
X115119047Y-101645904D02*
X115309523Y-101645904D01*
X114509523Y-101645904D02*
X114509523Y-101112571D01*
X114509523Y-100845904D02*
X114547619Y-100884000D01*
X114547619Y-100884000D02*
X114509523Y-100922095D01*
X114509523Y-100922095D02*
X114471428Y-100884000D01*
X114471428Y-100884000D02*
X114509523Y-100845904D01*
X114509523Y-100845904D02*
X114509523Y-100922095D01*
X114128571Y-101645904D02*
X114128571Y-101112571D01*
X114128571Y-101264952D02*
X114090476Y-101188761D01*
X114090476Y-101188761D02*
X114052381Y-101150666D01*
X114052381Y-101150666D02*
X113976190Y-101112571D01*
X113976190Y-101112571D02*
X113900000Y-101112571D01*
X113633333Y-101645904D02*
X113633333Y-100845904D01*
X113557143Y-101341142D02*
X113328571Y-101645904D01*
X113328571Y-101112571D02*
X113633333Y-101417333D01*
X112239048Y-101226857D02*
X112505714Y-101226857D01*
X112505714Y-101645904D02*
X112505714Y-100845904D01*
X112505714Y-100845904D02*
X112124762Y-100845904D01*
X111515238Y-101607809D02*
X111591429Y-101645904D01*
X111591429Y-101645904D02*
X111743810Y-101645904D01*
X111743810Y-101645904D02*
X111820000Y-101607809D01*
X111820000Y-101607809D02*
X111858096Y-101531619D01*
X111858096Y-101531619D02*
X111858096Y-101226857D01*
X111858096Y-101226857D02*
X111820000Y-101150666D01*
X111820000Y-101150666D02*
X111743810Y-101112571D01*
X111743810Y-101112571D02*
X111591429Y-101112571D01*
X111591429Y-101112571D02*
X111515238Y-101150666D01*
X111515238Y-101150666D02*
X111477143Y-101226857D01*
X111477143Y-101226857D02*
X111477143Y-101303047D01*
X111477143Y-101303047D02*
X111858096Y-101379238D01*
X110791429Y-101645904D02*
X110791429Y-100845904D01*
X110791429Y-101607809D02*
X110867620Y-101645904D01*
X110867620Y-101645904D02*
X111020001Y-101645904D01*
X111020001Y-101645904D02*
X111096191Y-101607809D01*
X111096191Y-101607809D02*
X111134286Y-101569714D01*
X111134286Y-101569714D02*
X111172382Y-101493523D01*
X111172382Y-101493523D02*
X111172382Y-101264952D01*
X111172382Y-101264952D02*
X111134286Y-101188761D01*
X111134286Y-101188761D02*
X111096191Y-101150666D01*
X111096191Y-101150666D02*
X111020001Y-101112571D01*
X111020001Y-101112571D02*
X110867620Y-101112571D01*
X110867620Y-101112571D02*
X110791429Y-101150666D01*
X110105714Y-101607809D02*
X110181905Y-101645904D01*
X110181905Y-101645904D02*
X110334286Y-101645904D01*
X110334286Y-101645904D02*
X110410476Y-101607809D01*
X110410476Y-101607809D02*
X110448572Y-101531619D01*
X110448572Y-101531619D02*
X110448572Y-101226857D01*
X110448572Y-101226857D02*
X110410476Y-101150666D01*
X110410476Y-101150666D02*
X110334286Y-101112571D01*
X110334286Y-101112571D02*
X110181905Y-101112571D01*
X110181905Y-101112571D02*
X110105714Y-101150666D01*
X110105714Y-101150666D02*
X110067619Y-101226857D01*
X110067619Y-101226857D02*
X110067619Y-101303047D01*
X110067619Y-101303047D02*
X110448572Y-101379238D01*
X109724762Y-101645904D02*
X109724762Y-101112571D01*
X109724762Y-101264952D02*
X109686667Y-101188761D01*
X109686667Y-101188761D02*
X109648572Y-101150666D01*
X109648572Y-101150666D02*
X109572381Y-101112571D01*
X109572381Y-101112571D02*
X109496191Y-101112571D01*
X109229524Y-101645904D02*
X109229524Y-101112571D01*
X109229524Y-101188761D02*
X109191429Y-101150666D01*
X109191429Y-101150666D02*
X109115239Y-101112571D01*
X109115239Y-101112571D02*
X109000953Y-101112571D01*
X109000953Y-101112571D02*
X108924762Y-101150666D01*
X108924762Y-101150666D02*
X108886667Y-101226857D01*
X108886667Y-101226857D02*
X108886667Y-101645904D01*
X108886667Y-101226857D02*
X108848572Y-101150666D01*
X108848572Y-101150666D02*
X108772381Y-101112571D01*
X108772381Y-101112571D02*
X108658096Y-101112571D01*
X108658096Y-101112571D02*
X108581905Y-101150666D01*
X108581905Y-101150666D02*
X108543810Y-101226857D01*
X108543810Y-101226857D02*
X108543810Y-101645904D01*
X107820000Y-101645904D02*
X107820000Y-101226857D01*
X107820000Y-101226857D02*
X107858095Y-101150666D01*
X107858095Y-101150666D02*
X107934286Y-101112571D01*
X107934286Y-101112571D02*
X108086667Y-101112571D01*
X108086667Y-101112571D02*
X108162857Y-101150666D01*
X107820000Y-101607809D02*
X107896191Y-101645904D01*
X107896191Y-101645904D02*
X108086667Y-101645904D01*
X108086667Y-101645904D02*
X108162857Y-101607809D01*
X108162857Y-101607809D02*
X108200953Y-101531619D01*
X108200953Y-101531619D02*
X108200953Y-101455428D01*
X108200953Y-101455428D02*
X108162857Y-101379238D01*
X108162857Y-101379238D02*
X108086667Y-101341142D01*
X108086667Y-101341142D02*
X107896191Y-101341142D01*
X107896191Y-101341142D02*
X107820000Y-101303047D01*
X107439047Y-101112571D02*
X107439047Y-101645904D01*
X107439047Y-101188761D02*
X107400952Y-101150666D01*
X107400952Y-101150666D02*
X107324762Y-101112571D01*
X107324762Y-101112571D02*
X107210476Y-101112571D01*
X107210476Y-101112571D02*
X107134285Y-101150666D01*
X107134285Y-101150666D02*
X107096190Y-101226857D01*
X107096190Y-101226857D02*
X107096190Y-101645904D01*
X106715237Y-101112571D02*
X106715237Y-101645904D01*
X106715237Y-101188761D02*
X106677142Y-101150666D01*
X106677142Y-101150666D02*
X106600952Y-101112571D01*
X106600952Y-101112571D02*
X106486666Y-101112571D01*
X106486666Y-101112571D02*
X106410475Y-101150666D01*
X106410475Y-101150666D02*
X106372380Y-101226857D01*
X106372380Y-101226857D02*
X106372380Y-101645904D01*
X115157142Y-102141904D02*
X115080952Y-102141904D01*
X115080952Y-102141904D02*
X115004761Y-102180000D01*
X115004761Y-102180000D02*
X114966666Y-102218095D01*
X114966666Y-102218095D02*
X114928571Y-102294285D01*
X114928571Y-102294285D02*
X114890476Y-102446666D01*
X114890476Y-102446666D02*
X114890476Y-102637142D01*
X114890476Y-102637142D02*
X114928571Y-102789523D01*
X114928571Y-102789523D02*
X114966666Y-102865714D01*
X114966666Y-102865714D02*
X115004761Y-102903809D01*
X115004761Y-102903809D02*
X115080952Y-102941904D01*
X115080952Y-102941904D02*
X115157142Y-102941904D01*
X115157142Y-102941904D02*
X115233333Y-102903809D01*
X115233333Y-102903809D02*
X115271428Y-102865714D01*
X115271428Y-102865714D02*
X115309523Y-102789523D01*
X115309523Y-102789523D02*
X115347619Y-102637142D01*
X115347619Y-102637142D02*
X115347619Y-102446666D01*
X115347619Y-102446666D02*
X115309523Y-102294285D01*
X115309523Y-102294285D02*
X115271428Y-102218095D01*
X115271428Y-102218095D02*
X115233333Y-102180000D01*
X115233333Y-102180000D02*
X115157142Y-102141904D01*
X114623809Y-102141904D02*
X114128571Y-102141904D01*
X114128571Y-102141904D02*
X114395237Y-102446666D01*
X114395237Y-102446666D02*
X114280952Y-102446666D01*
X114280952Y-102446666D02*
X114204761Y-102484761D01*
X114204761Y-102484761D02*
X114166666Y-102522857D01*
X114166666Y-102522857D02*
X114128571Y-102599047D01*
X114128571Y-102599047D02*
X114128571Y-102789523D01*
X114128571Y-102789523D02*
X114166666Y-102865714D01*
X114166666Y-102865714D02*
X114204761Y-102903809D01*
X114204761Y-102903809D02*
X114280952Y-102941904D01*
X114280952Y-102941904D02*
X114509523Y-102941904D01*
X114509523Y-102941904D02*
X114585714Y-102903809D01*
X114585714Y-102903809D02*
X114623809Y-102865714D01*
X113785713Y-102865714D02*
X113747618Y-102903809D01*
X113747618Y-102903809D02*
X113785713Y-102941904D01*
X113785713Y-102941904D02*
X113823809Y-102903809D01*
X113823809Y-102903809D02*
X113785713Y-102865714D01*
X113785713Y-102865714D02*
X113785713Y-102941904D01*
X113442857Y-102218095D02*
X113404761Y-102180000D01*
X113404761Y-102180000D02*
X113328571Y-102141904D01*
X113328571Y-102141904D02*
X113138095Y-102141904D01*
X113138095Y-102141904D02*
X113061904Y-102180000D01*
X113061904Y-102180000D02*
X113023809Y-102218095D01*
X113023809Y-102218095D02*
X112985714Y-102294285D01*
X112985714Y-102294285D02*
X112985714Y-102370476D01*
X112985714Y-102370476D02*
X113023809Y-102484761D01*
X113023809Y-102484761D02*
X113480952Y-102941904D01*
X113480952Y-102941904D02*
X112985714Y-102941904D01*
X112490475Y-102141904D02*
X112414285Y-102141904D01*
X112414285Y-102141904D02*
X112338094Y-102180000D01*
X112338094Y-102180000D02*
X112299999Y-102218095D01*
X112299999Y-102218095D02*
X112261904Y-102294285D01*
X112261904Y-102294285D02*
X112223809Y-102446666D01*
X112223809Y-102446666D02*
X112223809Y-102637142D01*
X112223809Y-102637142D02*
X112261904Y-102789523D01*
X112261904Y-102789523D02*
X112299999Y-102865714D01*
X112299999Y-102865714D02*
X112338094Y-102903809D01*
X112338094Y-102903809D02*
X112414285Y-102941904D01*
X112414285Y-102941904D02*
X112490475Y-102941904D01*
X112490475Y-102941904D02*
X112566666Y-102903809D01*
X112566666Y-102903809D02*
X112604761Y-102865714D01*
X112604761Y-102865714D02*
X112642856Y-102789523D01*
X112642856Y-102789523D02*
X112680952Y-102637142D01*
X112680952Y-102637142D02*
X112680952Y-102446666D01*
X112680952Y-102446666D02*
X112642856Y-102294285D01*
X112642856Y-102294285D02*
X112604761Y-102218095D01*
X112604761Y-102218095D02*
X112566666Y-102180000D01*
X112566666Y-102180000D02*
X112490475Y-102141904D01*
X111919047Y-102218095D02*
X111880951Y-102180000D01*
X111880951Y-102180000D02*
X111804761Y-102141904D01*
X111804761Y-102141904D02*
X111614285Y-102141904D01*
X111614285Y-102141904D02*
X111538094Y-102180000D01*
X111538094Y-102180000D02*
X111499999Y-102218095D01*
X111499999Y-102218095D02*
X111461904Y-102294285D01*
X111461904Y-102294285D02*
X111461904Y-102370476D01*
X111461904Y-102370476D02*
X111499999Y-102484761D01*
X111499999Y-102484761D02*
X111957142Y-102941904D01*
X111957142Y-102941904D02*
X111461904Y-102941904D01*
X111195237Y-102141904D02*
X110699999Y-102141904D01*
X110699999Y-102141904D02*
X110966665Y-102446666D01*
X110966665Y-102446666D02*
X110852380Y-102446666D01*
X110852380Y-102446666D02*
X110776189Y-102484761D01*
X110776189Y-102484761D02*
X110738094Y-102522857D01*
X110738094Y-102522857D02*
X110699999Y-102599047D01*
X110699999Y-102599047D02*
X110699999Y-102789523D01*
X110699999Y-102789523D02*
X110738094Y-102865714D01*
X110738094Y-102865714D02*
X110776189Y-102903809D01*
X110776189Y-102903809D02*
X110852380Y-102941904D01*
X110852380Y-102941904D02*
X111080951Y-102941904D01*
X111080951Y-102941904D02*
X111157142Y-102903809D01*
X111157142Y-102903809D02*
X111195237Y-102865714D01*
D11*
X102999999Y-114999999D03*
X102999999Y-118999999D03*
X102999999Y-102999999D03*
X108999999Y-110999999D03*
X102999999Y-110999999D03*
X102999999Y-106999999D03*
D12*
X101000000Y-100000000D02*
X121000000Y-100000000D01*
X121000000Y-100000000D02*
X121000000Y-122000000D01*
X121000000Y-122000000D02*
X101000000Y-122000000D01*
X101000000Y-100000000D02*
X101000000Y-122000000D01*
M02*
